<svg width="334" height="296" viewBox="0 0 334 296" fill="none" xmlns="http://www.w3.org/2000/svg">
<g filter="url(#filter0_bd_1_1919)">
<rect x="38.5" y="29.9961" width="257" height="220" rx="6" fill="#E0B9FF" fill-opacity="0.2"/>
</g>
<path d="M66.868 55.6121H68.66L72.692 65.9961H71.076L69.892 62.8441H65.444L64.276 65.9961H62.74L66.868 55.6121ZM69.508 61.7721L67.748 57.0841H67.604L65.844 61.7721H69.508ZM74.1855 58.2521H75.6255V61.4681H79.4335V58.2521H80.8735V65.9961H79.4335V62.5241H75.6255V65.9961H74.1855V58.2521ZM85.757 66.1561C85.021 66.1561 84.4503 66.0868 84.045 65.9481C83.6503 65.8094 83.3623 65.5641 83.181 65.2121C83.0103 64.8601 82.925 64.3534 82.925 63.6921C82.925 63.1054 83.005 62.6521 83.165 62.3321C83.3357 62.0014 83.6183 61.7668 84.013 61.6281C84.4183 61.4894 84.989 61.4201 85.725 61.4201H88.045V60.1881C88.045 59.9001 87.9863 59.6814 87.869 59.5321C87.7623 59.3721 87.5757 59.2601 87.309 59.1961C87.053 59.1321 86.6743 59.1001 86.173 59.1001C85.373 59.1001 84.4877 59.1641 83.517 59.2921V58.2361C84.573 58.1401 85.5277 58.0921 86.381 58.0921C87.277 58.0921 87.9383 58.1614 88.365 58.3001C88.7917 58.4281 89.085 58.6574 89.245 58.9881C89.405 59.3188 89.485 59.8308 89.485 60.5241V65.9961H88.093V65.2601C87.9757 65.8574 87.197 66.1561 85.757 66.1561ZM85.997 65.2121C86.5197 65.2121 86.9623 65.1748 87.325 65.1001C87.805 65.0041 88.045 64.7801 88.045 64.4281V62.3161H85.821C85.3623 62.3161 85.0317 62.3534 84.829 62.4281C84.6263 62.4921 84.493 62.6201 84.429 62.8121C84.365 63.0041 84.333 63.3134 84.333 63.7401C84.333 64.1241 84.3703 64.4228 84.445 64.6361C84.5197 64.8388 84.653 64.9881 84.845 65.0841C85.037 65.1694 85.325 65.2121 85.709 65.2121H85.997ZM91.6784 66.0121C91.5184 66.0121 91.3637 65.9961 91.2144 65.9641V64.7321C91.3637 64.7641 91.513 64.7801 91.6624 64.7801C92.121 64.7801 92.4837 64.4494 92.7504 63.7881C93.0277 63.1161 93.1664 61.8788 93.1664 60.0761V58.2521H98.4304V65.9961H96.9904V59.1961H94.4464V60.3161C94.4464 62.0761 94.2384 63.4681 93.8224 64.4921C93.4064 65.5054 92.6917 66.0121 91.6784 66.0121ZM107.832 58.2521V65.9961H106.392V60.2841L102.36 65.9961H100.92V58.2521H102.36V64.1561L106.472 58.2521H107.832ZM112.278 59.3081H109.558V58.2521H116.422V59.3081H113.718V65.9961H112.278V59.3081ZM125.066 58.2521V65.9961H123.626V60.2841L119.594 65.9961H118.154V58.2521H119.594V64.1561L123.706 58.2521H125.066ZM127.545 58.2521H128.985V61.5961C129.145 61.5961 129.273 61.5641 129.369 61.5001C129.475 61.4254 129.603 61.3134 129.753 61.1641L132.441 58.2521H134.201L130.681 61.9161C130.819 61.9481 131.017 62.0921 131.273 62.3481C131.539 62.6041 131.929 63.0201 132.441 63.5961L134.601 65.9961H132.825L130.713 63.5961C130.425 63.2654 130.142 63.0041 129.865 62.8121C129.651 62.6734 129.502 62.5934 129.417 62.5721C129.331 62.5401 129.246 62.5241 129.161 62.5241C129.075 62.5241 129.017 62.5241 128.985 62.5241V65.9961H127.545V58.2521ZM137.976 66.1561C137.24 66.1561 136.669 66.0868 136.264 65.9481C135.869 65.8094 135.581 65.5641 135.4 65.2121C135.229 64.8601 135.144 64.3534 135.144 63.6921C135.144 63.1054 135.224 62.6521 135.384 62.3321C135.554 62.0014 135.837 61.7668 136.232 61.6281C136.637 61.4894 137.208 61.4201 137.944 61.4201H140.264V60.1881C140.264 59.9001 140.205 59.6814 140.088 59.5321C139.981 59.3721 139.794 59.2601 139.528 59.1961C139.272 59.1321 138.893 59.1001 138.392 59.1001C137.592 59.1001 136.706 59.1641 135.736 59.2921V58.2361C136.792 58.1401 137.746 58.0921 138.6 58.0921C139.496 58.0921 140.157 58.1614 140.584 58.3001C141.01 58.4281 141.304 58.6574 141.464 58.9881C141.624 59.3188 141.704 59.8308 141.704 60.5241V65.9961H140.312V65.2601C140.194 65.8574 139.416 66.1561 137.976 66.1561ZM138.216 65.2121C138.738 65.2121 139.181 65.1748 139.544 65.1001C140.024 65.0041 140.264 64.7801 140.264 64.4281V62.3161H138.04C137.581 62.3161 137.25 62.3534 137.048 62.4281C136.845 62.4921 136.712 62.6201 136.648 62.8121C136.584 63.0041 136.552 63.3134 136.552 63.7401C136.552 64.1241 136.589 64.4228 136.664 64.6361C136.738 64.8388 136.872 64.9881 137.064 65.0841C137.256 65.1694 137.544 65.2121 137.928 65.2121H138.216Z" fill="white"/>
<rect x="62.5" y="223.996" width="24" height="6" rx="3" fill="#E0B9FF"/>
<rect x="108.5" y="223.996" width="24" height="6" rx="3" fill="#E0B9FF"/>
<rect x="154.5" y="223.996" width="24" height="6" rx="3" fill="#E0B9FF"/>
<rect x="200.5" y="223.996" width="24" height="6" rx="3" fill="#E0B9FF"/>
<rect x="246.5" y="223.996" width="24" height="6" rx="3" fill="#E0B9FF"/>
<line opacity="0.2" x1="63" y1="179.496" x2="271" y2="179.496" stroke="#E0B9FF" stroke-linecap="round"/>
<line opacity="0.2" x1="63" y1="151.496" x2="271" y2="151.496" stroke="#E0B9FF" stroke-linecap="round"/>
<line opacity="0.2" x1="63" y1="123.496" x2="271" y2="123.496" stroke="#E0B9FF" stroke-linecap="round"/>
<line opacity="0.2" x1="63" y1="95.4961" x2="271" y2="95.4961" stroke="#E0B9FF" stroke-linecap="round"/>
<line opacity="0.2" x1="63" y1="207.496" x2="271" y2="207.496" stroke="#E0B9FF" stroke-linecap="round"/>
<rect x="63.5" y="128.996" width="16" height="78" fill="url(#paint0_linear_1_1919)"/>
<rect x="191.5" y="109.996" width="16" height="97" fill="url(#paint1_linear_1_1919)"/>
<rect x="127.5" y="151.996" width="16" height="55" fill="url(#paint2_linear_1_1919)"/>
<rect x="255.5" y="133.996" width="16" height="73" fill="url(#paint3_linear_1_1919)"/>
<rect x="159.5" y="139.996" width="16" height="67" fill="url(#paint4_linear_1_1919)"/>
<rect x="95.5" y="153.996" width="16" height="53" fill="url(#paint5_linear_1_1919)"/>
<rect x="223.5" y="120.996" width="16" height="86" fill="url(#paint6_linear_1_1919)"/>
<path d="M64 125.498C76.1308 94.0791 87.6416 153.998 103 153.998C116.355 153.998 120.98 130.547 133 130.547C141.013 130.547 146.52 140.587 155.5 140.498C164.48 140.408 160.5 123.998 176 138.998C190.877 153.395 186.814 93.0195 199.502 93.0195C209.518 93.0195 205.511 118.265 220.87 118.265C232.889 118.265 234.893 99.8426 245.577 99.8426C258.264 99.8426 249.583 130.547 268.948 130.547" stroke="#6241D4" stroke-width="2" stroke-linecap="round" stroke-linejoin="round"/>
<defs>
<filter id="filter0_bd_1_1919" x="0.5" y="-0.00390625" width="333" height="296" filterUnits="userSpaceOnUse" color-interpolation-filters="sRGB">
<feFlood flood-opacity="0" result="BackgroundImageFix"/>
<feGaussianBlur in="BackgroundImageFix" stdDeviation="5"/>
<feComposite in2="SourceAlpha" operator="in" result="effect1_backgroundBlur_1_1919"/>
<feColorMatrix in="SourceAlpha" type="matrix" values="0 0 0 0 0 0 0 0 0 0 0 0 0 0 0 0 0 0 127 0" result="hardAlpha"/>
<feMorphology radius="2" operator="erode" in="SourceAlpha" result="effect2_dropShadow_1_1919"/>
<feOffset dy="8"/>
<feGaussianBlur stdDeviation="20"/>
<feColorMatrix type="matrix" values="0 0 0 0 0.0235294 0 0 0 0 0.0470588 0 0 0 0 0.231373 0 0 0 0.08 0"/>
<feBlend mode="normal" in2="effect1_backgroundBlur_1_1919" result="effect2_dropShadow_1_1919"/>
<feBlend mode="normal" in="SourceGraphic" in2="effect2_dropShadow_1_1919" result="shape"/>
</filter>
<linearGradient id="paint0_linear_1_1919" x1="71.5" y1="128.996" x2="71.5" y2="206.996" gradientUnits="userSpaceOnUse">
<stop stop-color="#BC6DFF"/>
<stop offset="1" stop-color="#714199"/>
</linearGradient>
<linearGradient id="paint1_linear_1_1919" x1="199.5" y1="109.996" x2="199.5" y2="206.996" gradientUnits="userSpaceOnUse">
<stop stop-color="#BC6DFF"/>
<stop offset="1" stop-color="#714199"/>
</linearGradient>
<linearGradient id="paint2_linear_1_1919" x1="135.5" y1="151.996" x2="135.5" y2="206.996" gradientUnits="userSpaceOnUse">
<stop stop-color="#BC6DFF"/>
<stop offset="1" stop-color="#714199"/>
</linearGradient>
<linearGradient id="paint3_linear_1_1919" x1="263.5" y1="133.996" x2="263.5" y2="206.996" gradientUnits="userSpaceOnUse">
<stop stop-color="#BC6DFF"/>
<stop offset="1" stop-color="#714199"/>
</linearGradient>
<linearGradient id="paint4_linear_1_1919" x1="151.929" y1="51.7409" x2="191.036" y2="200.822" gradientUnits="userSpaceOnUse">
<stop stop-color="#B195FF"/>
<stop offset="1" stop-color="#E9C6FF"/>
</linearGradient>
<linearGradient id="paint5_linear_1_1919" x1="87.9286" y1="84.1823" x2="113.004" y2="205.024" gradientUnits="userSpaceOnUse">
<stop stop-color="#B195FF"/>
<stop offset="1" stop-color="#E9C6FF"/>
</linearGradient>
<linearGradient id="paint6_linear_1_1919" x1="215.929" y1="7.71333" x2="277.782" y2="191.413" gradientUnits="userSpaceOnUse">
<stop stop-color="#B195FF"/>
<stop offset="1" stop-color="#E9C6FF"/>
</linearGradient>
</defs>
</svg>
