<svg width="262" height="111" viewBox="0 0 262 111" fill="none" xmlns="http://www.w3.org/2000/svg">
<rect x="0.247803" y="0.334961" width="261.361" height="110.117" rx="20" fill="white"/>
<path d="M171.283 67.4889H190.3V63.2895H177.766C179.495 56.3982 190.084 54.8908 190.084 47.2458C190.084 43.1541 187.275 40.1392 181.332 40.1392C177.658 40.1392 174.417 41.2159 172.256 42.2927L173.552 46.169C175.497 45.1999 177.766 44.3385 180.576 44.3385C182.737 44.3385 184.79 45.3076 184.79 47.7842C184.79 53.3833 172.364 53.814 171.283 67.4889ZM190.841 60.8129H203.05V67.4889H207.913V60.8129H212.019V56.7213H207.913V40.1392H204.347L190.841 57.5827V60.8129ZM196.351 56.9366L203.266 47.6765C203.266 48.4302 203.05 50.7991 203.05 52.9526V56.8289H199.809C198.836 56.8289 196.999 56.9366 196.351 56.9366Z" fill="#005893"/>
<path d="M33.1929 63.3989V54.8925H35.2459C37.0828 54.8925 38.5955 55.1078 39.676 55.7539C40.7565 56.3999 41.4048 57.4767 41.4048 59.1995C41.4048 62.1068 39.676 63.3989 35.57 63.3989H33.1929ZM28.2226 67.4906H35.462C43.5658 67.4906 46.4832 63.9372 46.4832 58.9842C46.4832 55.6462 45.0786 53.385 42.5934 52.0929C40.6485 51.0161 38.1633 50.6931 35.1378 50.6931H33.1929V44.2325H44.1061L45.4027 40.2485H28.1145V67.4906H28.2226ZM49.8328 67.4906H54.5871L60.746 58.6611C61.9346 57.046 62.799 55.4308 63.3392 54.5694H63.4473C63.3392 55.7539 63.2312 57.2613 63.2312 58.7688V67.3829H68.0935V48.0012H63.3392L57.1803 56.8306C56.0998 58.4458 55.1273 60.0609 54.5871 60.9223H54.479C54.5871 59.7379 54.6951 58.2304 54.6951 56.723V48.1089H49.8328V67.4906ZM76.4135 67.4906H81.3838V52.0929H87.2186L88.5152 48.0012H70.4706V52.0929H76.4135V67.4906ZM90.244 77.2891H95.1064V67.4906C96.0788 67.8136 97.0513 67.9213 98.1318 67.9213C104.291 67.9213 108.289 63.7219 108.289 57.692C108.289 51.4468 104.615 47.4628 97.5915 47.4628C94.8903 47.4628 92.297 48.0012 90.136 48.6473V77.2891H90.244ZM95.1064 63.2912V51.8775C95.8627 51.6622 96.511 51.5545 97.3754 51.5545C100.941 51.5545 103.21 53.4927 103.21 57.692C103.21 61.4607 101.373 63.8296 97.6996 63.8296C96.7271 63.8296 95.9708 63.6142 95.1064 63.2912ZM111.206 67.4906H115.96L122.119 58.6611C123.308 57.046 124.172 55.4308 124.712 54.5694H124.82C124.712 55.7539 124.604 57.2613 124.604 58.7688V67.3829H129.467V48.0012H124.712L118.553 56.8306C117.473 58.4458 116.501 60.0609 115.96 60.9223H115.852C115.96 59.7379 116.068 58.2304 116.068 56.723V48.1089H111.206V67.4906ZM133.357 67.4906H138.327V59.4149H141.244C141.785 59.4149 142.325 59.9532 142.973 61.2453L145.458 67.4906H150.753L147.187 60.0609C146.539 58.7688 145.89 58.0151 144.918 57.692V57.5844C146.539 56.6153 146.755 53.8157 147.727 52.4159C148.052 51.9852 148.484 51.7699 149.132 51.7699C149.456 51.7699 149.888 51.7699 150.213 51.9852V47.7859C149.672 47.5705 148.7 47.4628 148.16 47.4628C146.431 47.4628 145.35 48.1089 144.594 49.1856C142.973 51.5545 142.973 55.6462 140.596 55.6462H138.327V48.0012H133.357V67.4906ZM161.774 67.9213C164.475 67.9213 166.961 67.0598 168.473 65.9831L167.069 62.6451C165.664 63.3989 164.367 63.9372 162.53 63.9372C159.181 63.9372 157.02 61.7837 157.02 57.7997C157.02 54.2464 159.181 51.4468 162.855 51.4468C164.799 51.4468 166.204 51.9852 167.609 52.9543V48.7549C166.528 48.1089 164.799 47.4628 162.314 47.4628C156.48 47.4628 151.941 51.7699 151.941 57.9074C151.941 63.5065 155.399 67.9213 161.774 67.9213Z" fill="#0BBBEF"/>
<path d="M228.12 60.8152C233.415 60.8152 237.737 56.5082 237.737 51.2321C237.737 45.956 233.415 41.6489 228.12 41.6489C222.826 41.6489 218.504 45.956 218.504 51.2321C218.612 56.5082 222.826 60.8152 228.12 60.8152Z" stroke="#005893" stroke-width="1.769"/>
<path d="M234.171 51.2302H228.876V45.9541H227.472V52.63H234.171V51.2302Z" fill="#005893"/>
</svg>
