<svg width="28" height="29" viewBox="0 0 28 29" fill="none" xmlns="http://www.w3.org/2000/svg">
<path d="M14 0.0146484C6.26801 0.0146484 0 6.28266 0 14.0146C0 21.7466 6.26801 28.0146 14 28.0146C21.732 28.0146 28 21.7466 28 14.0146C27.991 6.28639 21.7283 0.023649 14 0.0146484Z" fill="#5243C2" fill-opacity="0.15"/>
<path d="M22.0811 9.58152L14.0953 20.4187C13.9048 20.6714 13.6208 20.8369 13.3071 20.8782C12.9934 20.9194 12.6762 20.8329 12.4269 20.638L6.72426 16.0787C6.22104 15.676 6.13955 14.9416 6.54226 14.4384C6.94497 13.9351 7.67937 13.8536 8.18259 14.2564L12.9379 18.0609L20.2028 8.20135C20.441 7.84387 20.8564 7.64623 21.284 7.68689C21.7117 7.72756 22.0824 7.99995 22.249 8.39592C22.4156 8.79189 22.3511 9.24737 22.0811 9.58152Z" fill="#BB6BD9"/>
</svg>
