<svg width="91" height="100" viewBox="0 0 91 100" fill="none" xmlns="http://www.w3.org/2000/svg">
<path fill-rule="evenodd" clip-rule="evenodd" d="M17.1774 12.3591L19.2222 12.6856L21.3276 13.2798L63.2994 28.5384L65.1362 29.2879L66.8995 30.2393L68.5759 31.3717L70.1518 32.665L71.6134 34.0994L72.9466 35.6558L74.1367 37.3154L75.1687 39.0597L76.027 40.8704L76.6953 42.7292L77.1566 44.6179L77.3932 46.5181L78.1408 87.9615L78.1408 87.9627L77.889 89.976L77.3932 91.8383L76.6662 93.5333L75.7208 95.0439L74.5703 96.3519L73.2285 97.4387L71.7094 98.2853L70.0286 98.8717L68.201 99.1783L66.2444 99.1848L64.1757 98.8714L17.8018 88.9829L15.536 88.4592L13.1525 87.4377L10.8741 85.9582L8.83467 84.4198L6.97213 82.6634L5.31091 80.7187L3.87467 78.6163L2.6861 76.3871L1.76687 74.0626L1.13748 71.6744L0.816895 69.2533L0.823126 66.8309L4.50597 22.2068L4.80156 20.2642L5.37652 18.5115L6.20626 16.9585L7.26642 15.6139L8.53315 14.4862L9.98319 13.583L11.594 12.9117L13.3437 12.4792L15.2116 12.2927L17.1774 12.3591ZM78.1408 87.9615L77.3932 46.5181L78.136 85.8139L78.1408 87.9615Z" fill="url(#paint0_linear_1_1986)" fill-opacity="0.5"/>
<path fill-rule="evenodd" clip-rule="evenodd" d="M13.7528 8.53794L13.4572 10.4805L9.96252 58.6149L9.95629 61.0373L10.2768 63.4582L10.9063 65.8466L11.8255 68.1711L13.0141 70.4002L14.4503 72.5027L16.1115 74.4474L17.9741 76.2038L20.0135 77.7422L22.2047 79.0337L24.5222 80.0507L26.9402 80.7666L76.5348 91.9996L78.6034 92.313L80.5602 92.3066L82.3875 92L84.0684 91.4137L82.3948 92.4056L80.8816 93.2492L79.2826 94.1977L80.8808 93.2496L80.8816 93.2492L82.3948 92.4056L84.0684 91.4137L85.5876 90.5671L82.3963 92.4047L82.3955 92.4052L82.3948 92.4056L80.8816 93.2492L79.2826 94.1977L76.246 95.9463L73.2829 97.6526L71.7854 98.4881L70.1359 99.075L68.3502 99.3942L66.445 99.4262L64.438 99.152L16.5826 89.039L14.2613 88.3865L12.0421 87.4441L9.9493 86.2368L8.00676 84.7908L6.23802 83.1332L4.66599 81.2921L3.31284 79.2963L2.19987 77.1749L1.34744 74.9575L0.774784 72.6737L0.5 70.3531L0.539914 68.0251L4.59822 21.5003L4.91236 19.611L5.49444 17.8993L8.4492 13.6911L9.49956 12.3592L11.684 9.60465L13.9224 6.782L16.2155 3.89038L15.1575 5.23217L14.3278 6.78524L13.7528 8.53794Z" fill="url(#paint1_linear_1_1986)"/>
<g filter="url(#filter0_b_1_1986)">
<path fill-rule="evenodd" clip-rule="evenodd" d="M26.1285 0.63255L28.1732 0.959053L30.2786 1.55321L73.6318 16.4253L75.4686 17.1747L77.2319 18.1261L78.9083 19.2586L80.4842 20.5518L81.9458 21.9862L83.279 23.5427L84.4691 25.2023L85.5011 26.9466L86.3594 28.7573L87.0277 30.6161L87.489 32.5048L87.7257 34.405L90.4997 81.0895L90.4998 81.0907L90.248 83.104L89.7522 84.9663L89.0251 86.6613L88.0797 88.1718L86.9292 89.4799L85.5875 90.5667L84.0683 91.4133L82.3875 91.9997L80.56 92.3063L78.6033 92.3127L76.5346 91.9994L26.941 80.7666L24.6752 80.2429L22.2917 79.2214L20.0133 77.7419L17.9738 76.2035L16.1113 74.4471L14.4501 72.5024L13.0138 70.4L11.8253 68.1708L10.906 65.8463L10.2766 63.4581L9.95605 61.037L9.96229 58.6146L13.457 10.4802L13.7526 8.53767L14.3276 6.78497L15.1573 5.23189L16.2174 3.88735L17.4842 2.75962L18.9342 1.85642L20.545 1.18509L22.2948 0.752675L24.1626 0.566162L26.1285 0.63255ZM90.4997 81.0895L87.7257 34.405L90.4949 78.9418L90.4997 81.0895Z" fill="url(#paint2_linear_1_1986)" fill-opacity="0.3"/>
<path d="M89.9979 81.0744L89.7561 83.0082L89.2783 84.8026L88.5808 86.4287L87.6774 87.8722L86.5817 89.118L85.3063 90.151L83.8627 90.9555L82.2629 91.5136L80.5175 91.8064L78.6401 91.8126L76.6274 91.5077L27.0536 80.2794L27.0514 80.2789L24.8312 79.7658L22.5281 78.7787L20.3003 77.3321L18.2969 75.8209L16.474 74.1018L14.8477 72.1981L13.4421 70.1406L12.2798 67.9606L11.3819 65.6901L10.7682 63.3612L10.4561 61.0047L10.4622 58.6334L13.9543 10.536L14.2406 8.654L14.7891 6.98218L15.5774 5.50664L16.5828 4.23152L17.7848 3.16146L19.1641 2.30231L20.7021 1.66132L22.38 1.24665L24.1791 1.067L26.0804 1.13121L28.0655 1.44819L30.1295 2.03065L73.4561 16.8937L75.2549 17.6275L76.9726 18.5544L78.6091 19.6599L80.1499 20.9243L81.5802 22.3279L82.8852 23.8515L84.05 25.4758L85.0592 27.1815L85.8972 28.9494L86.5483 30.7604L86.9964 32.5953L87.2275 34.4507L89.9979 81.0744Z" stroke="url(#paint3_linear_1_1986)"/>
</g>
<g filter="url(#filter1_d_1_1986)">
<path fill-rule="evenodd" clip-rule="evenodd" d="M30.7287 38.7968L32.6771 36.7107L30.3677 39.184L30.7287 38.7968ZM77.7358 40.5059L51.5146 59.9329L51.5122 59.9346L51.0506 60.2201L50.552 60.4242L50.0235 60.5485L49.4726 60.5942L48.9067 60.5628L48.3332 60.4559L47.7599 60.2751L47.1942 60.022L46.6441 59.6985L45.8269 60.7517L45.0096 61.805L45.5691 62.0528L46.1366 62.2292L46.7045 62.3324L47.2655 62.3609L47.8118 62.3132L48.3364 62.1879L48.8318 61.9835L49.2909 61.6989L75.4291 42.3203L75.4305 42.3193L77.7358 40.5059ZM32.3145 37.0996L30.3677 39.184L30.079 39.6222L29.8634 40.1044L29.7217 40.6231L29.6548 41.1711L29.6633 41.7408L29.7479 42.3247L29.9091 42.915L30.1476 43.5041L30.4637 44.084L30.8575 44.647L43.0055 60.135L43.4561 60.6503L43.9455 61.1018L44.4659 61.4873L45.0096 61.805L45.8269 60.7517L46.6441 59.6985L46.1172 59.3065L45.6212 58.848L45.1641 58.3252L32.8331 42.6187L32.433 42.048L32.1114 41.4606L31.8681 40.8645L31.7027 40.2675L31.6147 39.6774L31.6037 39.1021L31.6688 38.5491L31.8095 38.0261L32.025 37.5405L32.3145 37.0996ZM32.3145 37.0996L32.6771 36.7107L30.3677 39.184L32.3145 37.0996Z" fill="url(#paint4_linear_1_1986)"/>
<path fill-rule="evenodd" clip-rule="evenodd" d="M77.5219 35.0777L77.8704 35.5766L78.1598 36.0876L78.3901 36.6049L78.5609 37.1222L78.6719 37.6334L78.7227 38.1321L78.713 38.6123L78.6421 39.0674L78.5095 39.491L78.3147 39.8765L78.057 40.2174L77.7359 40.507L51.5141 59.9344L51.5123 59.9357L51.0507 60.2211L50.5521 60.4253L50.0236 60.5495L49.4727 60.5952L48.9068 60.5639L48.3333 60.457L47.7599 60.2761L47.1943 60.0231L46.6442 59.6996L46.1173 59.3076L48.5419 49.5802L72.1989 33.3076L72.5791 33.0962L72.9916 32.958L73.4301 32.8904L73.8883 32.891L74.3599 32.9574L74.8387 33.0872L75.3186 33.2783L75.7934 33.5284L76.2571 33.8354L76.7038 34.1972L77.1274 34.6119L77.5219 35.0777ZM31.669 38.55L31.8096 38.0272L32.025 37.5418L33.6027 36.126L35.8274 35.8986L36.411 36.0279L36.9907 36.2268L37.5592 36.4931L38.109 36.8245L38.6331 37.219L39.1241 37.6746L39.5748 38.1895L48.5419 49.5802L46.1173 59.3076L45.6213 58.8491L45.1642 58.3263L32.8331 42.6197L32.4331 42.0491L32.1115 41.4617L31.8682 40.8655L31.7028 40.2685L31.6148 39.6785L31.6038 39.1032L31.669 38.55ZM35.8274 35.8986L35.2472 35.8412L34.678 35.8583L34.1273 35.9524L33.6027 36.126L35.8274 35.8986ZM33.6027 36.126L33.1122 36.3819L32.6773 36.7117L32.3145 37.1007L32.025 37.5418L33.6027 36.126Z" fill="url(#paint5_linear_1_1986)"/>
</g>
<defs>
<filter id="filter0_b_1_1986" x="-3.04395" y="-12.4338" width="106.544" height="117.747" filterUnits="userSpaceOnUse" color-interpolation-filters="sRGB">
<feFlood flood-opacity="0" result="BackgroundImageFix"/>
<feGaussianBlur in="BackgroundImageFix" stdDeviation="6.5"/>
<feComposite in2="SourceAlpha" operator="in" result="effect1_backgroundBlur_1_1986"/>
<feBlend mode="normal" in="SourceGraphic" in2="effect1_backgroundBlur_1_1986" result="shape"/>
</filter>
<filter id="filter1_d_1_1986" x="12.9495" y="28.25" width="75.0539" height="55.4565" filterUnits="userSpaceOnUse" color-interpolation-filters="sRGB">
<feFlood flood-opacity="0" result="BackgroundImageFix"/>
<feColorMatrix in="SourceAlpha" type="matrix" values="0 0 0 0 0 0 0 0 0 0 0 0 0 0 0 0 0 0 127 0" result="hardAlpha"/>
<feOffset dx="-3.71229" dy="8.35266"/>
<feGaussianBlur stdDeviation="6.49651"/>
<feComposite in2="hardAlpha" operator="out"/>
<feColorMatrix type="matrix" values="0 0 0 0 0.103333 0 0 0 0 0.4104 0 0 0 0 0.43 0 0 0 0.25 0"/>
<feBlend mode="normal" in2="BackgroundImageFix" result="effect1_dropShadow_1_1986"/>
<feBlend mode="normal" in="SourceGraphic" in2="effect1_dropShadow_1_1986" result="shape"/>
</filter>
<linearGradient id="paint0_linear_1_1986" x1="3.05964" y1="104.64" x2="73.7651" y2="18.7137" gradientUnits="userSpaceOnUse">
<stop offset="0.320833" stop-color="#9400FF" stop-opacity="0.66"/>
<stop offset="0.58125" stop-color="#9400FF" stop-opacity="0.76"/>
<stop offset="0.89375" stop-color="#9400FF"/>
</linearGradient>
<linearGradient id="paint1_linear_1_1986" x1="-20.3965" y1="16.8378" x2="78.4841" y2="115.587" gradientUnits="userSpaceOnUse">
<stop stop-color="#1E092E" stop-opacity="0.1"/>
<stop offset="0.35896" stop-color="#9400FF" stop-opacity="0.63"/>
<stop offset="0.683604" stop-color="#9E00FF"/>
<stop offset="1" stop-color="#393009"/>
</linearGradient>
<linearGradient id="paint2_linear_1_1986" x1="12.5157" y1="95.7659" x2="83.2212" y2="9.83925" gradientUnits="userSpaceOnUse">
<stop offset="0.320833" stop-color="#FE6543"/>
<stop offset="0.685417" stop-color="#FD6344"/>
<stop offset="0.89375" stop-color="#F3335A"/>
</linearGradient>
<linearGradient id="paint3_linear_1_1986" x1="9.81104" y1="83.4719" x2="88.0536" y2="17.8321" gradientUnits="userSpaceOnUse">
<stop offset="0.180663" stop-color="white" stop-opacity="0.35"/>
<stop offset="0.533255" stop-color="white" stop-opacity="0"/>
</linearGradient>
<linearGradient id="paint4_linear_1_1986" x1="27.4122" y1="17.8323" x2="27.976" y2="68.2076" gradientUnits="userSpaceOnUse">
<stop offset="0.301696" stop-color="#D795FF"/>
<stop offset="0.993284" stop-color="#7FB8C0" stop-opacity="0.63"/>
</linearGradient>
<linearGradient id="paint5_linear_1_1986" x1="51.3707" y1="69.0968" x2="76.7481" y2="23.9202" gradientUnits="userSpaceOnUse">
<stop stop-color="white"/>
<stop offset="0.644664" stop-color="white" stop-opacity="0.57"/>
</linearGradient>
</defs>
</svg>
