<svg width="222" height="83" viewBox="0 0 222 83" fill="none" xmlns="http://www.w3.org/2000/svg">
<path d="M0.980225 20.1709C0.980225 9.12519 9.93453 0.170898 20.9802 0.170898H201.174C212.22 0.170898 221.174 9.1252 221.174 20.1709V62.3068C221.174 73.3525 212.22 82.3068 201.174 82.3068H20.9802C9.93451 82.3068 0.980225 73.3525 0.980225 62.3068V20.1709Z" fill="white"/>
<mask id="mask0_1_2482" style="mask-type:luminance" maskUnits="userSpaceOnUse" x="35" y="27" width="151" height="29">
<path d="M186 27.0132H35.9998V55.0133H186V27.0132Z" fill="white"/>
</mask>
<g mask="url(#mask0_1_2482)">
<path d="M59.3698 45.2957C59.8238 45.2957 60.0058 45.8167 60.0058 46.9467C59.9588 47.7167 59.7088 48.4647 59.2788 49.1187C58.7088 49.9967 58.0038 50.7877 57.1868 51.4637C56.3418 52.1717 55.3918 52.7567 54.3688 53.2017C53.4358 53.6457 52.4098 53.8827 51.3678 53.8967C50.0038 53.8967 49.1858 52.7677 48.7308 50.5087C48.0948 51.5517 47.1858 52.4197 46.0948 53.0277C44.7988 53.7387 43.3128 54.0717 41.8208 53.9837C41.0478 54.0027 40.2768 53.8847 39.5478 53.6357C38.8118 53.3467 38.1338 52.9347 37.5478 52.4197C37.0408 51.9187 36.6388 51.3287 36.3658 50.6817C36.1058 50.0457 35.9818 49.3667 36.0018 48.6837C36.0018 44.6007 37.4568 41.3857 40.2758 39.0407C41.2258 38.1617 42.3778 37.5077 43.6398 37.1287C44.6988 36.8147 45.8038 36.6677 46.9128 36.6947C47.8898 36.6787 48.8568 36.8867 49.7318 37.3027C50.0948 36.6077 50.4588 36.2597 50.9138 36.2597C51.3928 36.2517 51.8658 36.3717 52.2778 36.6077C52.7238 36.7867 53.1268 37.0527 53.4588 37.3897C54.1258 37.9087 54.5498 38.6577 54.6418 39.4747C54.1868 40.4307 53.6408 41.3857 53.0958 42.3417C52.8238 43.8907 52.7318 45.4647 52.8228 47.0327C52.8228 49.0317 53.0958 50.0737 53.6408 50.0737C54.1868 50.0737 55.9138 48.8577 58.3688 46.3377C58.8238 45.5567 59.1878 45.2957 59.3698 45.2957ZM41.5478 47.4677C41.5478 49.2917 42.2758 50.2477 43.7308 50.2477C44.5298 50.2247 45.3078 49.9937 45.9798 49.5807C46.6528 49.1677 47.1948 48.5867 47.5488 47.9017C47.8898 47.2817 48.1938 46.6437 48.4588 45.9907C48.4258 43.6547 48.6698 41.3237 49.1858 39.0407C47.1468 39.4337 45.2788 40.4027 43.8218 41.8207C43.0798 42.5777 42.4938 43.4627 42.0938 44.4267C41.7288 45.4027 41.5448 46.4317 41.5478 47.4677Z" fill="#005893"/>
<path d="M76.2774 42.9752C76.2774 42.1922 75.8233 41.7572 74.8243 41.7572C74.2183 41.7572 73.4913 42.3662 72.6433 43.5842C71.8473 44.7902 71.2633 46.1132 70.9173 47.5012V47.5882C70.9433 48.4392 71.0643 49.2852 71.2813 50.1122C71.4893 50.7022 71.6113 51.3172 71.6443 51.9392C71.6443 52.7223 70.5543 53.5063 68.4643 54.3763C68.1743 54.4833 67.8673 54.5423 67.5563 54.5503C67.2623 54.5443 66.9773 54.4533 66.7383 54.2893C66.5053 54.1163 66.3443 53.8693 66.2843 53.5933C66.0243 52.7752 65.9013 51.9232 65.9203 51.0692C65.9203 50.0252 65.9204 48.9802 66.0113 48.0232C66.1023 47.0652 66.1023 46.1952 66.1933 45.4122C66.2843 44.6292 66.2843 43.9322 66.3753 43.2362C66.4433 42.7462 66.4733 42.2512 66.4663 41.7572C66.4663 40.9732 66.1023 40.5382 65.2853 40.5382C64.4673 40.5382 63.5583 41.4092 62.5593 43.1492C61.7123 44.4082 61.1843 45.8382 61.0153 47.3272C61.0013 48.2952 61.1233 49.2612 61.3783 50.1992C61.5863 50.7892 61.7093 51.4042 61.7413 52.0262C61.7413 52.8093 60.6513 53.5933 58.5623 54.4633C58.2713 54.5703 57.9643 54.6293 57.6533 54.6373C57.3603 54.6313 57.0753 54.5403 56.8353 54.3763C56.6033 54.2033 56.4423 53.9563 56.3813 53.6803C56.1263 52.7423 56.0043 51.7762 56.0183 50.8082C55.9433 48.3342 56.0953 45.8592 56.4723 43.4102C56.8543 41.1472 57.7203 38.9842 59.0163 37.0572C59.1783 36.7872 59.3943 36.5502 59.6523 36.3612C59.9303 36.1932 60.2383 36.0752 60.5603 36.0132C61.3783 36.0132 62.1963 36.6222 62.8323 37.9272C63.0373 38.2202 63.1903 38.5442 63.2863 38.8852C63.7293 38.2122 64.3583 37.6692 65.1033 37.3182C65.8313 36.9452 66.6393 36.7362 67.4653 36.7092C68.5363 36.6972 69.5733 37.0692 70.3723 37.7532C70.7513 38.0682 71.0603 38.4532 71.2813 38.8852C71.5043 39.3162 71.5983 39.7982 71.5533 40.2772V40.7122C72.1673 39.8452 73.0154 39.1532 74.0064 38.7112C75.0024 38.2652 76.0863 38.0282 77.1863 38.0142C77.7373 37.9862 78.2903 38.0452 78.8214 38.1882C79.3514 38.3632 79.8443 38.6282 80.2753 38.9722C80.6273 39.2902 80.9053 39.6752 81.0924 40.1032C81.2784 40.5452 81.3713 41.0192 81.3653 41.4962C81.3653 42.3662 81.2743 43.3232 81.1833 44.1932C81.0924 45.0642 80.8204 45.7602 80.6384 46.4562C80.4564 47.1532 80.2753 47.7622 80.0933 48.2842C79.9883 48.7122 79.9274 49.1502 79.9114 49.5892C79.9114 49.8502 80.0023 50.0252 80.1843 50.0252C80.7033 49.9362 81.1803 49.6922 81.5463 49.3282C82.0923 48.8932 82.6374 48.3712 83.1824 47.8492L84.7263 46.3692C85.1803 45.9342 85.5443 45.6732 85.7263 45.6732C86.0893 45.6732 86.2714 46.1082 86.2714 46.8912C86.2714 48.5452 85.3623 50.1992 83.6363 51.8522C82.1553 53.3273 80.1383 54.1993 78.0033 54.2893C76.1863 54.2893 75.2784 52.7222 75.2784 49.5892C75.2954 48.4742 75.4473 47.3642 75.7323 46.2822C76.0333 45.2012 76.2154 44.0932 76.2774 42.9752Z" fill="#005893"/>
<path d="M96.7026 50.7568C95.8826 51.8198 94.7866 52.6588 93.5236 53.1918C92.2816 53.7758 90.9126 54.0738 89.5276 54.0608C86.7116 54.0608 84.7136 53.3658 83.2606 51.9738C82.5806 51.3038 82.0546 50.5038 81.7166 49.6268C81.3396 48.7458 81.1846 47.7928 81.2626 46.8448C81.1676 44.1248 82.1766 41.4758 84.0776 39.4538C84.9896 38.4288 86.1406 37.6248 87.4386 37.1068C88.7336 36.5888 90.1226 36.3228 91.5256 36.3238C92.6686 36.3208 93.8036 36.4968 94.8866 36.8458C96.3396 37.4538 97.0666 37.9758 97.0666 38.4978C97.0666 39.0188 96.0676 39.1058 93.9786 39.1058C93.0126 39.1028 92.0566 39.2798 91.1626 39.6278C90.2576 39.9638 89.4486 40.4998 88.8006 41.1928C88.0946 41.8598 87.5376 42.6588 87.1666 43.5408C86.8476 44.4638 86.7536 45.4458 86.8936 46.4098C86.8916 47.3918 87.2446 48.3438 87.8926 49.1048C88.2546 49.4708 88.6866 49.7658 89.1646 49.9748C89.6576 50.1528 90.1816 50.2408 90.7086 50.2358C91.7556 50.2738 92.7936 50.0328 93.7056 49.5398C92.8356 49.0138 92.1416 48.2598 91.7076 47.3658C91.2206 46.4848 90.9996 45.4918 91.0716 44.4968C91.0466 43.3338 91.5036 42.2078 92.3436 41.3668C92.7726 40.9158 93.2996 40.5598 93.8876 40.3238C94.4916 40.0828 95.1406 39.9648 95.7946 39.9758C96.3516 39.9238 96.9146 39.9988 97.4356 40.1958C97.9566 40.3918 98.4216 40.7038 98.7916 41.1058C99.4036 41.9468 99.7216 42.9508 99.7006 43.9748C99.6696 45.2678 99.3596 46.5408 98.7916 47.7138H98.9736C99.4976 47.7118 100.016 47.6108 100.499 47.4168C100.982 47.2228 101.421 46.9398 101.79 46.5838L102.607 45.8008L102.88 45.5398C102.97 45.4538 103.061 45.4538 103.243 45.4538C103.606 45.4538 103.788 45.8878 103.788 46.6708C103.832 47.2908 103.739 47.9128 103.515 48.4968C103.283 49.0668 102.909 49.5738 102.425 49.9748C101.591 50.6578 100.526 51.0288 99.4276 51.0178C98.5126 51.0128 97.6006 50.9258 96.7026 50.7568ZM96.4306 46.5838C96.8226 45.7938 97.0386 44.9358 97.0666 44.0618C97.0666 43.2798 96.7936 42.8448 96.2486 42.8448C96.1246 42.8618 96.0076 42.9108 95.9116 42.9878C95.8156 43.0648 95.7436 43.1658 95.7036 43.2798C95.5566 43.5468 95.4936 43.8488 95.5226 44.1488C95.5246 44.5968 95.6166 45.0398 95.7946 45.4538C95.8156 45.6728 95.8836 45.8858 95.9926 46.0808C96.1016 46.2748 96.2506 46.4458 96.4306 46.5838Z" fill="#005893"/>
<path d="M182.146 54.19C182.903 54.19 183.642 53.974 184.272 53.57C184.901 53.167 185.391 52.593 185.681 51.921C185.97 51.25 186.045 50.511 185.898 49.799C185.751 49.086 185.386 48.431 184.852 47.917C184.316 47.403 183.635 47.053 182.893 46.912C182.151 46.77 181.381 46.843 180.683 47.121C179.984 47.399 179.386 47.87 178.966 48.474C178.545 49.078 178.321 49.789 178.321 50.515C178.358 51.479 178.773 52.393 179.482 53.075C180.192 53.757 181.143 54.155 182.146 54.19Z" fill="#C1E9FB"/>
<path d="M143.259 45.9599C143.713 45.9599 143.895 46.4819 143.895 47.6129C143.817 48.3929 143.536 49.1409 143.077 49.7889C142.507 50.669 141.802 51.462 140.985 52.139C140.139 52.848 139.189 53.435 138.165 53.88C137.265 54.324 136.269 54.562 135.255 54.576C134.493 54.58 133.743 54.401 133.072 54.054C132.512 53.722 132.069 53.237 131.799 52.662C131.344 51.878 131.071 50.312 130.708 47.9609C130.531 46.3519 130.257 44.7539 129.889 43.1739C129.246 43.0779 128.646 42.8059 128.161 42.3909C127.909 42.2559 127.716 42.0399 127.615 41.7819C127.512 41.5309 127.45 41.2669 127.433 40.9979C127.395 40.7519 127.461 40.5019 127.615 40.3019L128.161 39.7799C128.731 39.5309 129.354 39.4119 129.98 39.4319C130.613 39.4409 131.235 39.5899 131.799 39.8669C132.493 39.3359 133.079 38.6859 133.527 37.9519C134.007 37.0049 134.226 35.9559 134.164 34.9049C134.169 34.3429 134.077 33.7849 133.891 33.2519C133.665 32.7239 133.324 32.2489 132.89 31.8589C131.782 31.0229 130.386 30.6189 128.979 30.7269C127.631 30.6949 126.284 30.8419 124.978 31.1629C124.169 31.3999 123.379 31.6909 122.613 32.0329C121.976 32.3809 121.34 32.6419 120.794 32.9029C120.344 33.1389 119.849 33.2869 119.339 33.3389C118.884 33.3389 118.702 33.1649 118.702 32.9029C118.813 32.3859 119.064 31.9059 119.43 31.5109C120.013 30.7919 120.72 30.1729 121.522 29.6829C123.756 28.2759 126.345 27.4689 129.016 27.3459C131.688 27.2239 134.346 27.7899 136.71 28.9869C137.767 29.5339 138.647 30.3469 139.257 31.3369C139.887 32.3289 140.174 33.4869 140.075 34.6439C140.161 36.4989 139.547 38.3209 138.348 39.7799C137.238 41.1279 135.758 42.1529 134.073 42.7389C134.471 43.5769 134.775 44.4519 134.982 45.3499C135.255 46.3079 135.437 47.0909 135.71 47.8739C135.887 48.5459 136.163 49.1909 136.529 49.7889C136.652 49.9839 136.805 50.16 136.983 50.312C137.165 50.486 137.347 50.486 137.62 50.573C138.188 50.468 138.719 50.228 139.166 49.8759C139.806 49.4239 140.387 48.8979 140.894 48.3099C141.44 47.7869 141.985 47.2649 142.44 46.7429C142.712 46.1339 143.077 45.9599 143.259 45.9599ZM126.888 32.9029C127.251 32.9029 127.342 33.3389 127.342 34.1219C127.327 34.9079 127.266 35.6929 127.161 36.4719C126.988 37.8019 126.684 39.1139 126.251 40.3889C125.66 42.2719 125.204 44.1909 124.887 46.1339V51.443C124.952 51.99 124.824 52.541 124.523 53.01C124.226 53.47 123.821 53.857 123.341 54.141L121.976 54.751C121.517 54.937 121.02 55.026 120.521 55.012C119.43 55.012 118.975 53.88 118.975 51.53C119.092 48.5339 119.675 45.5709 120.703 42.7389C121.506 39.9019 122.699 37.1809 124.25 34.6439C124.539 34.2069 124.909 33.8229 125.342 33.5129C125.543 33.3169 125.784 33.1609 126.049 33.0569C126.315 32.9519 126.6 32.8999 126.888 32.9029Z" fill="#C1E9FB"/>
<path d="M175.774 45.9693C176.228 45.9693 176.41 46.4913 176.41 47.6223C176.332 48.4003 176.05 49.1483 175.592 49.7953C175.023 50.6743 174.317 51.4663 173.501 52.1433C172.655 52.8523 171.706 53.4373 170.683 53.8823C169.653 54.3283 168.539 54.5653 167.409 54.5783C166.911 54.5843 166.417 54.4953 165.955 54.3173C165.495 54.1623 165.087 53.8923 164.773 53.5343C164.131 52.8733 163.773 52.0033 163.773 51.1003C163.784 50.0993 163.937 49.1043 164.227 48.1433C164.591 47.0133 164.864 45.8823 165.227 44.6653C166.009 42.4722 166.497 40.1932 166.682 37.8822C166.666 37.4432 166.606 37.0062 166.5 36.5782C166.429 36.4232 166.299 36.2992 166.136 36.2302C165.965 36.1592 165.778 36.1302 165.591 36.1432C164.628 36.2592 163.748 36.7262 163.136 37.4482C162.216 38.4772 161.395 39.5822 160.682 40.7522C159.053 43.5243 158.12 46.6203 157.955 49.7953L158.136 50.8393C158.212 51.1823 158.242 51.5323 158.227 51.8823C158.235 52.3143 158.109 52.7373 157.864 53.1003C157.671 53.4743 157.391 53.8023 157.046 54.0563C156.319 54.6733 155.38 55.0143 154.409 55.0133C154.14 55.0193 153.88 54.9263 153.682 54.7523C153.48 54.5873 153.325 54.3783 153.227 54.1433C152.938 53.5123 152.783 52.8323 152.773 52.1433C152.859 51.0583 153.041 49.9813 153.318 48.9263C153.682 47.5353 154.136 46.0563 154.591 44.5783C155.773 40.4912 156.409 37.4482 156.409 35.4482C156.423 34.6232 156.3 33.8012 156.046 33.0132C155.912 32.7242 155.691 32.4822 155.409 32.3172C155.28 32.2282 155.131 32.1662 154.974 32.1362C154.817 32.1062 154.655 32.1082 154.5 32.1432C153.136 32.1432 151.773 33.1002 150.5 34.9262C149.227 36.7522 147.955 39.6222 146.955 43.5353C146.682 44.5783 146.5 45.4483 146.318 46.1433V46.8393C146.7 48.2643 146.943 49.7193 147.046 51.1873C147.112 51.7463 147 52.3113 146.723 52.8073C146.448 53.3043 146.021 53.7093 145.499 53.9693L144.135 54.5783C143.674 54.7563 143.179 54.8443 142.681 54.8393C141.408 54.8393 140.772 53.7083 140.772 51.3613C140.772 49.0133 141.408 44.5783 142.681 37.8822C143.135 35.4482 143.408 34.1432 143.408 33.7962C143.408 31.8832 142.863 30.8392 141.863 30.8392C141.512 30.8442 141.168 30.9332 140.863 31.1002C140.575 31.3232 140.272 31.5262 139.954 31.7092C139.629 31.9132 139.325 32.1462 139.045 32.4042C138.745 32.5822 138.397 32.6732 138.045 32.6652C137.681 32.6652 137.499 32.3172 137.499 31.7092C137.497 31.0352 137.685 30.3742 138.045 29.7962C138.377 29.2342 138.844 28.7572 139.408 28.4042C140.701 27.5082 142.268 27.0492 143.863 27.1002C146.135 27.1002 147.5 28.1432 147.864 30.1432C147.973 30.7762 148.034 31.4152 148.046 32.0562C149.864 28.7522 152.227 27.0132 155.136 27.0132C158.227 27.0132 160.046 28.4042 160.409 31.2742C160.56 32.1352 160.622 33.0092 160.591 33.8822V34.1432C162.227 31.9692 164.136 30.9262 166.409 30.9262C169.592 30.9262 171.137 32.7522 171.137 36.4042C171.139 38.2872 170.864 40.1602 170.319 41.9692C169.774 44.1433 169.41 45.6223 169.228 46.5783C169.011 47.2853 168.889 48.0163 168.865 48.7523C168.865 49.7083 169.228 50.1433 169.865 50.1433C170.501 50.1433 172.137 48.9263 174.683 46.4043C175.021 46.2073 175.388 46.0603 175.774 45.9693Z" fill="#C1E9FB"/>
<path d="M122.055 41.1237C122.691 41.1237 123.055 41.7327 123.055 42.8647C123.055 44.1528 122.777 45.4268 122.236 46.6058C121.617 48.0098 120.757 49.3038 119.69 50.4348C118.495 51.7388 117.042 52.8038 115.416 53.5678C113.541 54.5108 111.439 54.9618 109.323 54.8728C107.04 54.8778 104.836 54.0718 103.138 52.6108C101.411 51.1318 100.501 48.9558 100.501 46.0838C100.472 43.4528 100.902 40.8347 101.774 38.3397C102.497 36.1727 103.604 34.1417 105.048 32.3347C106.327 30.8457 107.866 29.5797 109.595 28.5927C111.094 27.6897 112.827 27.2077 114.597 27.2007C117.326 27.2007 118.69 28.3317 118.69 30.6817C118.775 31.7997 118.522 32.9167 117.962 33.9007C117.417 34.6847 116.962 35.1197 116.416 35.1197C116.075 35.1117 115.738 35.0527 115.416 34.9457C115.091 34.8157 114.809 34.6057 114.597 34.3367C114.386 34.0677 114.103 33.8567 113.779 33.7267C113.479 33.5487 113.131 33.4587 112.778 33.4657C112.142 33.4657 110.414 33.3787 108.959 35.6417C108.391 36.4097 107.961 37.2627 107.686 38.1657C106.853 40.2797 106.421 42.5197 106.412 44.7788C106.52 45.5818 106.793 46.3558 107.214 47.0578C107.635 47.7598 108.198 48.3748 108.868 48.8688C109.669 49.3888 110.631 49.6348 111.596 49.5648C112.458 49.4878 113.296 49.2478 114.06 48.8598C114.825 48.4708 115.502 47.9418 116.052 47.3028L118.508 44.6918C119.326 43.8218 120.054 42.9517 120.69 42.1677C121.236 41.5587 121.691 41.1237 122.055 41.1237Z" fill="#C1E9FB"/>
</g>
</svg>
