<svg width="130" height="129" viewBox="0 0 130 129" fill="none" xmlns="http://www.w3.org/2000/svg">
<g filter="url(#filter0_bi_1_2450)">
<rect x="2.31079" y="1.81934" width="125.691" height="125.691" rx="62.8453" fill="#9B5CD0" fill-opacity="0.29"/>
<rect x="2.31079" y="1.81934" width="125.691" height="125.691" rx="62.8453" stroke="#957AE0" stroke-width="3"/>
</g>
<g filter="url(#filter1_bf_1_2450)">
<path d="M43.9652 52.9849C43.9652 56.6594 40.9316 59.6733 37.1712 59.6733C33.4109 59.6733 30.3773 56.6594 30.3773 52.9849C30.3773 49.3103 33.4109 46.2964 37.1712 46.2964C40.9316 46.2964 43.9652 49.3103 43.9652 52.9849ZM99.1225 52.9849C99.1225 56.6594 96.0889 59.6733 92.3286 59.6733C88.5682 59.6733 85.5346 56.6594 85.5346 52.9849C85.5346 49.3103 88.5682 46.2964 92.3286 46.2964C96.0889 46.2964 99.1225 49.3103 99.1225 52.9849ZM93.0091 79.1088C92.0562 73.951 89.0017 69.5631 84.741 66.7779C85.795 66.1153 87.0443 65.7318 88.3888 65.7318H96.2684C100.029 65.7318 103.062 68.7457 103.062 72.4203V76.3074C103.062 77.844 101.802 79.1088 100.208 79.1088H93.0091ZM77.4535 51.0413C77.4535 57.947 71.7852 63.5604 64.7499 63.5604C57.7146 63.5604 52.0463 57.947 52.0463 51.0413C52.0463 44.1356 57.7146 38.5222 64.7499 38.5222C71.7852 38.5222 77.4535 44.1356 77.4535 51.0413ZM64.7499 71.5624C67.8671 71.5624 70.7917 70.8326 73.4248 69.6189H74.2054C81.45 69.6189 87.3031 75.4145 87.3031 82.5267V86.0251C87.3031 88.6307 85.1559 90.77 82.479 90.77H47.0208C44.3439 90.77 42.1967 88.6307 42.1967 86.0251V82.5267C42.1967 75.4145 48.0498 69.6189 55.2944 69.6189H56.0759C58.7181 70.8319 61.6311 71.5624 64.7499 71.5624ZM41.111 65.7318C42.4555 65.7318 43.7048 66.1153 44.7588 66.7779C40.4975 69.5634 37.4425 73.9516 36.4802 79.1088H29.2916C27.6982 79.1088 26.4375 77.8441 26.4375 76.3074V72.4203C26.4375 68.7457 29.4711 65.7318 33.2314 65.7318H41.111Z" fill="url(#paint0_linear_1_2450)" stroke="url(#paint1_linear_1_2450)" stroke-width="2.1714"/>
</g>
<path d="M44.3028 52.977C44.3028 56.8413 41.1146 60.0012 37.1732 60.0012C33.2317 60.0012 30.0436 56.8413 30.0436 52.977C30.0436 49.1128 33.2317 45.9529 37.1732 45.9529C41.1146 45.9529 44.3028 49.1128 44.3028 52.977ZM99.4601 52.977C99.4601 56.8413 96.272 60.0012 92.3305 60.0012C88.3891 60.0012 85.2009 56.8413 85.2009 52.977C85.2009 49.1128 88.3891 45.9529 92.3305 45.9529C96.272 45.9529 99.4601 49.1128 99.4601 52.977ZM92.7296 79.4366C91.8241 74.0826 88.6189 69.546 84.1322 66.7799C85.3216 65.9054 86.7925 65.3883 88.3907 65.3883H96.2703C100.212 65.3883 103.4 68.5482 103.4 72.4125V76.2996C103.4 78.0259 101.985 79.4366 100.21 79.4366H92.7296ZM77.7912 51.0335C77.7912 58.1289 71.9683 63.8883 64.7519 63.8883C57.5354 63.8883 51.7125 58.1289 51.7125 51.0335C51.7125 43.9381 57.5354 38.1787 64.7519 38.1787C71.9683 38.1787 77.7912 43.9381 77.7912 51.0335ZM64.7519 71.2189C67.842 71.2189 70.742 70.4894 73.3528 69.2754H74.2074C81.6331 69.2754 87.6407 75.217 87.6407 82.5189V86.0173C87.6407 88.8125 85.339 91.0979 82.481 91.0979H47.0227C44.1647 91.0979 41.863 88.8125 41.863 86.0173V82.5189C41.863 75.217 47.8706 69.2754 55.2963 69.2754H56.1515C58.7725 70.4889 61.6605 71.2189 64.7519 71.2189ZM41.113 65.3883C42.7112 65.3883 44.1821 65.9054 45.3715 66.7799C40.8844 69.5462 37.6788 74.0831 36.7631 79.4366H29.2936C27.519 79.4366 26.1038 78.0259 26.1038 76.2996V72.4125C26.1038 68.5482 29.2919 65.3883 33.2334 65.3883H41.113Z" stroke="url(#paint2_linear_1_2450)" stroke-width="1.5"/>
<defs>
<filter id="filter0_bi_1_2450" x="-74.1892" y="-74.6807" width="278.691" height="278.69" filterUnits="userSpaceOnUse" color-interpolation-filters="sRGB">
<feFlood flood-opacity="0" result="BackgroundImageFix"/>
<feGaussianBlur in="BackgroundImageFix" stdDeviation="37.5"/>
<feComposite in2="SourceAlpha" operator="in" result="effect1_backgroundBlur_1_2450"/>
<feBlend mode="normal" in="SourceGraphic" in2="effect1_backgroundBlur_1_2450" result="shape"/>
<feColorMatrix in="SourceAlpha" type="matrix" values="0 0 0 0 0 0 0 0 0 0 0 0 0 0 0 0 0 0 127 0" result="hardAlpha"/>
<feOffset dx="3" dy="3"/>
<feGaussianBlur stdDeviation="1.5"/>
<feComposite in2="hardAlpha" operator="arithmetic" k2="-1" k3="1"/>
<feColorMatrix type="matrix" values="0 0 0 0 0 0 0 0 0 0 0 0 0 0 0 0 0 0 0.15 0"/>
<feBlend mode="normal" in2="shape" result="effect2_innerShadow_1_2450"/>
</filter>
<filter id="filter1_bf_1_2450" x="-10.6482" y="1.43652" width="150.796" height="126.419" filterUnits="userSpaceOnUse" color-interpolation-filters="sRGB">
<feFlood flood-opacity="0" result="BackgroundImageFix"/>
<feGaussianBlur in="BackgroundImageFix" stdDeviation="18"/>
<feComposite in2="SourceAlpha" operator="in" result="effect1_backgroundBlur_1_2450"/>
<feBlend mode="normal" in="SourceGraphic" in2="effect1_backgroundBlur_1_2450" result="shape"/>
<feGaussianBlur stdDeviation="5" result="effect2_foregroundBlur_1_2450"/>
</filter>
<linearGradient id="paint0_linear_1_2450" x1="-11.9357" y1="-34.2467" x2="-6.34693" y2="94.9316" gradientUnits="userSpaceOnUse">
<stop stop-color="#5A42B2"/>
<stop offset="1" stop-color="#DAB3FF"/>
</linearGradient>
<linearGradient id="paint1_linear_1_2450" x1="64.7499" y1="37.4365" x2="64.7499" y2="91.8557" gradientUnits="userSpaceOnUse">
<stop stop-color="#BC6DFF"/>
<stop offset="1" stop-color="#714199"/>
</linearGradient>
<linearGradient id="paint2_linear_1_2450" x1="-11.9337" y1="-34.2545" x2="-6.34498" y2="94.9238" gradientUnits="userSpaceOnUse">
<stop stop-color="#E9CDFF"/>
<stop offset="1" stop-color="#E9C6FF"/>
</linearGradient>
</defs>
</svg>
