<svg width="95" height="95" viewBox="0 0 95 95" fill="none" xmlns="http://www.w3.org/2000/svg">
<g filter="url(#filter0_bi_1_2440)">
<rect x="2.02759" y="1.87402" width="91.1602" height="91.1602" rx="45.5801" fill="#9B5CD0" fill-opacity="0.29"/>
<rect x="2.02759" y="1.87402" width="91.1602" height="91.1602" rx="45.5801" stroke="#957AE0" stroke-width="3"/>
</g>
<g filter="url(#filter1_bf_1_2440)">
<path d="M31.94 38.979C31.94 41.4755 29.8772 43.5317 27.3109 43.5317C24.7445 43.5317 22.6817 41.4755 22.6817 38.979C22.6817 36.4824 24.7445 34.4263 27.3109 34.4263C29.8772 34.4263 31.94 36.4824 31.94 38.979ZM71.9443 38.979C71.9443 41.4755 69.8814 43.5317 67.3151 43.5317C64.7487 43.5317 62.6859 41.4755 62.6859 38.979C62.6859 36.4824 64.7487 34.4263 67.3151 34.4263C69.8814 34.4263 71.9443 36.4824 71.9443 38.979ZM64.4576 48.5223H70.1725C72.7389 48.5223 74.8017 50.5784 74.8017 53.075V55.8942C74.8017 56.8402 74.0247 57.6277 73.03 57.6277H68.0546C67.3317 54.0732 65.2576 51.0313 62.3785 49.0066C63.0033 48.6966 63.7086 48.5223 64.4576 48.5223ZM56.2283 37.5694C56.2283 42.4094 52.2546 46.3509 47.313 46.3509C42.3714 46.3509 38.3976 42.4094 38.3976 37.5694C38.3976 32.7293 42.3714 28.7878 47.313 28.7878C52.2546 28.7878 56.2283 32.7293 56.2283 37.5694ZM47.313 52.7511C49.5975 52.7511 51.7404 52.2216 53.6698 51.3415H54.1708C59.2642 51.3415 63.3719 55.4151 63.3719 60.4049V62.9422C63.3719 64.6635 61.952 66.0853 60.1715 66.0853H34.4545C32.6739 66.0853 31.254 64.6635 31.254 62.9422V60.4049C31.254 55.4151 35.3617 51.3415 40.4551 51.3415H40.9571C42.8923 52.2209 45.0268 52.7511 47.313 52.7511ZM30.1683 48.5223C30.9173 48.5223 31.6226 48.6966 32.2474 49.0066C29.3677 51.0316 27.2931 54.0737 26.5641 57.6277H21.596C20.6012 57.6277 19.8242 56.8402 19.8242 55.8942V53.075C19.8242 50.5784 21.8871 48.5223 24.4534 48.5223H30.1683Z" fill="url(#paint0_linear_1_2440)" stroke="url(#paint1_linear_1_2440)" stroke-width="2.1714"/>
</g>
<path d="M32.4277 38.979C32.4277 41.7499 30.1412 44.0174 27.3128 44.0174C24.4844 44.0174 22.1979 41.7499 22.1979 38.979C22.1979 36.208 24.4844 33.9406 27.3128 33.9406C30.1412 33.9406 32.4277 36.208 32.4277 38.979ZM72.4319 38.979C72.4319 41.7499 70.1454 44.0174 67.317 44.0174C64.4886 44.0174 62.2021 41.7499 62.2021 38.979C62.2021 36.208 64.4886 33.9406 67.317 33.9406C70.1454 33.9406 72.4319 36.208 72.4319 38.979ZM64.4596 48.0366H70.1745C73.0029 48.0366 75.2894 50.304 75.2894 53.075V55.8942C75.2894 57.1146 74.2887 58.1134 73.0319 58.1134H67.6537C66.9884 54.2624 64.6885 50.9964 61.4716 48.9863C62.3128 48.3884 63.3428 48.0366 64.4596 48.0366ZM56.716 37.5694C56.716 42.6838 52.5186 46.8366 47.3149 46.8366C42.1113 46.8366 37.9139 42.6838 37.9139 37.5694C37.9139 32.4549 42.1113 28.3021 47.3149 28.3021C52.5186 28.3021 56.716 32.4549 56.716 37.5694ZM47.3149 52.2654C49.5607 52.2654 51.6681 51.7362 53.5654 50.8558H54.1728C59.5282 50.8558 63.8596 55.1407 63.8596 60.4049V62.9422C63.8596 64.9379 62.216 66.571 60.1734 66.571H34.4564C32.4138 66.571 30.7703 64.9379 30.7703 62.9422V60.4049C30.7703 55.1407 35.1016 50.8558 40.4571 50.8558H41.065C42.9694 51.7358 45.0683 52.2654 47.3149 52.2654ZM30.1703 48.0366C31.287 48.0366 32.317 48.3884 33.1583 48.9863C29.941 50.9966 27.6408 54.2627 26.9682 58.1134H21.5979C20.3411 58.1134 19.3405 57.1146 19.3405 55.8942V53.075C19.3405 50.304 21.627 48.0366 24.4554 48.0366H30.1703Z" stroke="url(#paint2_linear_1_2440)" stroke-width="1.2"/>
<defs>
<filter id="filter0_bi_1_2440" x="-74.4724" y="-74.626" width="244.16" height="244.16" filterUnits="userSpaceOnUse" color-interpolation-filters="sRGB">
<feFlood flood-opacity="0" result="BackgroundImageFix"/>
<feGaussianBlur in="BackgroundImageFix" stdDeviation="37.5"/>
<feComposite in2="SourceAlpha" operator="in" result="effect1_backgroundBlur_1_2440"/>
<feBlend mode="normal" in="SourceGraphic" in2="effect1_backgroundBlur_1_2440" result="shape"/>
<feColorMatrix in="SourceAlpha" type="matrix" values="0 0 0 0 0 0 0 0 0 0 0 0 0 0 0 0 0 0 127 0" result="hardAlpha"/>
<feOffset dx="3" dy="3"/>
<feGaussianBlur stdDeviation="1.5"/>
<feComposite in2="hardAlpha" operator="arithmetic" k2="-1" k3="1"/>
<feColorMatrix type="matrix" values="0 0 0 0 0 0 0 0 0 0 0 0 0 0 0 0 0 0 0.15 0"/>
<feBlend mode="normal" in2="shape" result="effect2_innerShadow_1_2440"/>
</filter>
<filter id="filter1_bf_1_2440" x="-17.2615" y="-8.29785" width="129.149" height="111.469" filterUnits="userSpaceOnUse" color-interpolation-filters="sRGB">
<feFlood flood-opacity="0" result="BackgroundImageFix"/>
<feGaussianBlur in="BackgroundImageFix" stdDeviation="18"/>
<feComposite in2="SourceAlpha" operator="in" result="effect1_backgroundBlur_1_2440"/>
<feBlend mode="normal" in="SourceGraphic" in2="effect1_backgroundBlur_1_2440" result="shape"/>
<feGaussianBlur stdDeviation="5" result="effect2_foregroundBlur_1_2440"/>
</filter>
<linearGradient id="paint0_linear_1_2440" x1="-8.30514" y1="-24.2879" x2="-4.25177" y2="69.4019" gradientUnits="userSpaceOnUse">
<stop stop-color="#5A42B2"/>
<stop offset="1" stop-color="#DAB3FF"/>
</linearGradient>
<linearGradient id="paint1_linear_1_2440" x1="47.313" y1="27.7021" x2="47.313" y2="67.171" gradientUnits="userSpaceOnUse">
<stop stop-color="#BC6DFF"/>
<stop offset="1" stop-color="#714199"/>
</linearGradient>
<linearGradient id="paint2_linear_1_2440" x1="-8.30318" y1="-24.2879" x2="-4.24982" y2="69.4019" gradientUnits="userSpaceOnUse">
<stop stop-color="#E9CDFF"/>
<stop offset="1" stop-color="#E9C6FF"/>
</linearGradient>
</defs>
</svg>
