<svg width="170" height="170" viewBox="0 0 170 170" fill="none" xmlns="http://www.w3.org/2000/svg">
<g filter="url(#filter0_bi_1_2435)">
<rect x="2.00024" y="1.99902" width="165.746" height="165.746" rx="82.8729" fill="#9B5CD0" fill-opacity="0.29"/>
<rect x="2.00024" y="1.99902" width="165.746" height="165.746" rx="82.8729" stroke="#957AE0" stroke-width="3"/>
</g>
<g filter="url(#filter1_bf_1_2435)">
<path d="M57.278 69.4633C57.278 74.5043 53.1184 78.6292 47.973 78.6292C42.8277 78.6292 38.668 74.5043 38.668 69.4633C38.668 64.4222 42.8277 60.2973 47.973 60.2973C53.1184 60.2973 57.278 64.4222 57.278 69.4633ZM130.013 69.4633C130.013 74.5043 125.853 78.6292 120.708 78.6292C115.563 78.6292 111.403 74.5043 111.403 69.4633C111.403 64.4222 115.563 60.2973 120.708 60.2973C125.853 60.2973 130.013 64.4222 130.013 69.4633ZM121.316 104.258C120.107 97.2535 115.923 91.3131 110.07 87.6587C111.602 86.5682 113.478 85.9264 115.513 85.9264H125.903C131.049 85.9264 135.208 90.0513 135.208 95.0924V100.218C135.208 102.44 133.387 104.258 131.099 104.258H121.316ZM101.439 66.9004C101.439 76.2023 93.8045 83.755 84.3405 83.755C74.8765 83.755 67.2425 76.2023 67.2425 66.9004C67.2425 57.5984 74.8765 50.0457 84.3405 50.0457C93.8045 50.0457 101.439 57.5984 101.439 66.9004ZM84.3405 93.6152C88.4233 93.6152 92.2545 92.6531 95.7038 91.0523H96.8093C106.549 91.0523 114.427 98.8453 114.427 108.42V113.033C114.427 116.664 111.436 119.636 107.72 119.636H60.9614C57.2448 119.636 54.2541 116.664 54.2541 113.033V108.42C54.2541 98.8453 62.1317 91.0523 71.8716 91.0523H72.9781C76.4404 92.6523 80.2561 93.6152 84.3405 93.6152ZM53.1684 85.9264C55.2028 85.9264 57.079 86.5682 58.6105 87.6587C52.7574 91.3134 48.5729 97.2541 47.3509 104.258H37.5823C35.2944 104.258 33.4727 102.44 33.4727 100.218V95.0924C33.4727 90.0513 37.6323 85.9264 42.7777 85.9264H53.1684Z" fill="url(#paint0_linear_1_2435)" stroke="url(#paint1_linear_1_2435)" stroke-width="2.1714"/>
</g>
<path d="M57.278 69.4633C57.278 74.5043 53.1184 78.6292 47.973 78.6292C42.8277 78.6292 38.668 74.5043 38.668 69.4633C38.668 64.4222 42.8277 60.2973 47.973 60.2973C53.1184 60.2973 57.278 64.4222 57.278 69.4633ZM130.013 69.4633C130.013 74.5043 125.853 78.6292 120.708 78.6292C115.563 78.6292 111.403 74.5043 111.403 69.4633C111.403 64.4222 115.563 60.2973 120.708 60.2973C125.853 60.2973 130.013 64.4222 130.013 69.4633ZM121.316 104.258C120.107 97.2535 115.923 91.3131 110.07 87.6587C111.602 86.5682 113.478 85.9264 115.513 85.9264H125.903C131.049 85.9264 135.208 90.0513 135.208 95.0924V100.218C135.208 102.44 133.387 104.258 131.099 104.258H121.316ZM101.439 66.9004C101.439 76.2023 93.8045 83.755 84.3405 83.755C74.8765 83.755 67.2425 76.2023 67.2425 66.9004C67.2425 57.5984 74.8765 50.0457 84.3405 50.0457C93.8045 50.0457 101.439 57.5984 101.439 66.9004ZM84.3405 93.6152C88.4233 93.6152 92.2545 92.6531 95.7038 91.0523H96.8093C106.549 91.0523 114.427 98.8453 114.427 108.42V113.033C114.427 116.664 111.436 119.636 107.72 119.636H60.9614C57.2448 119.636 54.2541 116.664 54.2541 113.033V108.42C54.2541 98.8453 62.1317 91.0523 71.8716 91.0523H72.9781C76.4404 92.6523 80.2561 93.6152 84.3405 93.6152ZM53.1684 85.9264C55.2028 85.9264 57.079 86.5682 58.6105 87.6587C52.7574 91.3134 48.5729 97.2541 47.3509 104.258H37.5823C35.2944 104.258 33.4727 102.44 33.4727 100.218V95.0924C33.4727 90.0513 37.6323 85.9264 42.7777 85.9264H53.1684Z" stroke="url(#paint2_linear_1_2435)" stroke-width="2.1714"/>
<defs>
<filter id="filter0_bi_1_2435" x="-74.4998" y="-74.501" width="318.746" height="318.746" filterUnits="userSpaceOnUse" color-interpolation-filters="sRGB">
<feFlood flood-opacity="0" result="BackgroundImageFix"/>
<feGaussianBlur in="BackgroundImageFix" stdDeviation="37.5"/>
<feComposite in2="SourceAlpha" operator="in" result="effect1_backgroundBlur_1_2435"/>
<feBlend mode="normal" in="SourceGraphic" in2="effect1_backgroundBlur_1_2435" result="shape"/>
<feColorMatrix in="SourceAlpha" type="matrix" values="0 0 0 0 0 0 0 0 0 0 0 0 0 0 0 0 0 0 127 0" result="hardAlpha"/>
<feOffset dx="3" dy="3"/>
<feGaussianBlur stdDeviation="1.5"/>
<feComposite in2="hardAlpha" operator="arithmetic" k2="-1" k3="1"/>
<feColorMatrix type="matrix" values="0 0 0 0 0 0 0 0 0 0 0 0 0 0 0 0 0 0 0.15 0"/>
<feBlend mode="normal" in2="shape" result="effect2_innerShadow_1_2435"/>
</filter>
<filter id="filter1_bf_1_2435" x="-3.61304" y="12.96" width="175.907" height="143.762" filterUnits="userSpaceOnUse" color-interpolation-filters="sRGB">
<feFlood flood-opacity="0" result="BackgroundImageFix"/>
<feGaussianBlur in="BackgroundImageFix" stdDeviation="18"/>
<feComposite in2="SourceAlpha" operator="in" result="effect1_backgroundBlur_1_2435"/>
<feBlend mode="normal" in="SourceGraphic" in2="effect1_backgroundBlur_1_2435" result="shape"/>
<feGaussianBlur stdDeviation="5" result="effect2_foregroundBlur_1_2435"/>
</filter>
<linearGradient id="paint0_linear_1_2435" x1="-16.7833" y1="-45.5673" x2="-9.41357" y2="124.778" gradientUnits="userSpaceOnUse">
<stop stop-color="#5A42B2"/>
<stop offset="1" stop-color="#DAB3FF"/>
</linearGradient>
<linearGradient id="paint1_linear_1_2435" x1="84.3405" y1="48.96" x2="84.3405" y2="120.722" gradientUnits="userSpaceOnUse">
<stop stop-color="#BC6DFF"/>
<stop offset="1" stop-color="#714199"/>
</linearGradient>
<linearGradient id="paint2_linear_1_2435" x1="-16.7833" y1="-45.5673" x2="-9.41357" y2="124.778" gradientUnits="userSpaceOnUse">
<stop stop-color="#E9CDFF"/>
<stop offset="1" stop-color="#E9C6FF"/>
</linearGradient>
</defs>
</svg>
