<svg width="367" height="366" viewBox="0 0 367 366" fill="none" xmlns="http://www.w3.org/2000/svg">
<path d="M183.623 365.932C284.658 365.932 366.563 284.028 366.563 182.993C366.563 81.9585 284.658 0.0537109 183.623 0.0537109C82.5886 0.0537109 0.683838 81.9585 0.683838 182.993C0.683838 284.028 82.5886 365.932 183.623 365.932Z" fill="url(#paint0_radial_1_2405)"/>
<g opacity="0.747" filter="url(#filter0_f_1_2405)">
<path d="M286.714 206.235C318.308 206.235 343.92 180.623 343.92 149.029C343.92 117.435 318.308 91.8232 286.714 91.8232C255.12 91.8232 229.508 117.435 229.508 149.029C229.508 180.623 255.12 206.235 286.714 206.235Z" fill="url(#paint1_linear_1_2405)"/>
</g>
<mask id="mask0_1_2405" style="mask-type:luminance" maskUnits="userSpaceOnUse" x="0" y="0" width="367" height="366">
<path d="M183.347 365.932C284.229 365.932 366.01 284.028 366.01 182.993C366.01 81.9585 284.229 0.0537109 183.347 0.0537109C82.4649 0.0537109 0.683838 81.9585 0.683838 182.993C0.683838 284.028 82.4649 365.932 183.347 365.932Z" fill="white"/>
</mask>
<g mask="url(#mask0_1_2405)">
<g filter="url(#filter1_f_1_2405)">
<path d="M237.253 356.399C296.163 356.399 343.918 308.644 343.918 249.734C343.918 190.825 296.163 143.069 237.253 143.069C178.344 143.069 130.588 190.825 130.588 249.734C130.588 308.644 178.344 356.399 237.253 356.399Z" fill="url(#paint2_linear_1_2405)"/>
</g>
</g>
<g opacity="0.396" filter="url(#filter2_f_1_2405)">
<path d="M304.593 253.903C326.314 253.903 343.922 236.295 343.922 214.574C343.922 192.853 326.314 175.245 304.593 175.245C282.872 175.245 265.264 192.853 265.264 214.574C265.264 236.295 282.872 253.903 304.593 253.903Z" fill="url(#paint3_linear_1_2405)"/>
</g>
<g opacity="0.747" filter="url(#filter3_f_1_2405)">
<path d="M223.551 296.807C243.297 296.807 259.304 280.8 259.304 261.053C259.304 241.307 243.297 225.3 223.551 225.3C203.805 225.3 187.797 241.307 187.797 261.053C187.797 280.8 203.805 296.807 223.551 296.807Z" fill="url(#paint4_linear_1_2405)"/>
</g>
<g opacity="0.747" filter="url(#filter4_f_1_2405)">
<path d="M243.809 300.383C258.29 300.383 270.029 288.644 270.029 274.164C270.029 259.683 258.29 247.944 243.809 247.944C229.329 247.944 217.59 259.683 217.59 274.164C217.59 288.644 229.329 300.383 243.809 300.383Z" fill="url(#paint5_linear_1_2405)"/>
</g>
<g opacity="0.412" filter="url(#filter5_f_1_2405)">
<path d="M143.699 210.998C193.064 210.998 233.083 173.381 233.083 126.977C233.083 80.5735 193.064 42.9561 143.699 42.9561C94.3333 42.9561 54.3147 80.5735 54.3147 126.977C54.3147 173.381 94.3333 210.998 143.699 210.998Z" fill="url(#paint6_linear_1_2405)"/>
</g>
<g opacity="0.453" filter="url(#filter6_f_1_2405)">
<path d="M82.3245 226.495C95.8177 226.495 106.756 215.557 106.756 202.063C106.756 188.57 95.8177 177.632 82.3245 177.632C68.8312 177.632 57.8928 188.57 57.8928 202.063C57.8928 215.557 68.8312 226.495 82.3245 226.495Z" fill="url(#paint7_linear_1_2405)"/>
</g>
<g opacity="0.453" filter="url(#filter7_f_1_2405)">
<path d="M126.42 268.206C139.913 268.206 150.852 257.268 150.852 243.774C150.852 230.281 139.913 219.343 126.42 219.343C112.927 219.343 101.989 230.281 101.989 243.774C101.989 257.268 112.927 268.206 126.42 268.206Z" fill="url(#paint8_linear_1_2405)"/>
</g>
<g opacity="0.453" filter="url(#filter8_f_1_2405)">
<path d="M74.5751 265.821C82.4736 265.821 88.8766 259.418 88.8766 251.519C88.8766 243.621 82.4736 237.218 74.5751 237.218C66.6767 237.218 60.2737 243.621 60.2737 251.519C60.2737 259.418 66.6767 265.821 74.5751 265.821Z" fill="url(#paint9_linear_1_2405)"/>
</g>
<path d="M72.4752 37.7152C59.07 48.067 60.773 49.21 65.6748 48.8262C70.5766 48.4424 81.2775 44.7276 82.2202 42.9137C83.1629 41.0998 85.0449 48.8262 85.0449 48.8262L89.8923 52.7222C89.8923 52.7222 95.1076 70.2962 88.1046 73.6118C81.1017 76.9273 83.8251 82.3953 83.8251 82.3953C83.8251 82.3953 90.325 82.5395 89.8888 87.3162C89.4526 92.0929 88.1011 100.187 88.1011 100.187C88.1011 100.187 84.5612 95.5694 85.0379 93.7519C85.5146 91.9344 80.4578 106.163 77.8872 108.331C75.3165 110.499 68.5763 136.319 68.5763 136.319L72.8302 151.931L77.886 157.31L80.5815 175.703L83.8275 179.285L80.5815 182.396C80.5815 182.396 92.831 205.516 93.6795 206.456C94.5281 207.395 101.131 213.443 100.75 211.819C100.369 210.194 88.1081 179.283 88.1081 179.283L86.7604 169.26L83.8275 164.774H89.8912V175.7L100.75 192.558L102.698 191.296V198.447L112.802 211.82L115.253 215.991L112.802 217.31V224.79L121.291 232.948L150.925 247.764H155.544L162.667 249.066L165.872 254.722L175.005 259.727L183.647 265.175L186.523 273.05L192.025 274.732L205.657 278.139L207.028 282.181H212.63L210.34 278.139L215.053 274.732L218.667 276.429V279.351L223.381 280.86V285.008L220.216 288.856V295.2L216.942 296.891L215.053 301.143L207.024 303.006L202.917 312.116H207.024L202.917 317.866V324.421L207.024 327.111L218.668 340.221L226.629 342.858H236.759C236.759 342.858 235.309 354.445 228.819 355.76C222.33 357.076 216.945 362.732 216.945 362.732C216.945 362.732 257.275 359.74 304.358 320.76C335.977 291.423 345.91 267.314 345.91 267.314C345.91 267.314 327.211 273.253 322.82 273.049C318.43 272.845 322.82 261.727 322.82 261.727H309.845L305.168 267.317L296.651 261.727H292.261V251.359L269.856 259.729L264.119 261.728L253.544 254.724L255.224 259.73L250.018 261.73V271.13L245.226 267.317L247.471 257.496L236.763 263.162L226.632 274.733L216.947 268.951L208.561 273.05L198.394 267.315L200 247.764L186.521 245.182L173.089 247.764L177.332 241.818V237.528L181.754 236.001L183.647 228.081L186.523 224.796L171.371 222.247L168.526 228.081L171.371 232.954L157.851 237.529V232.954H150.925L147.238 224.796V206.472L150.925 208.219V198.465L160.062 192.577L171.371 191.315H175.005L177.332 187.082H188.654L192.022 189.811L195.441 187.082L199.996 192.576V198.463L202.918 203.801L207.025 208.218H210.341L208.553 181.205L215.05 175.723L218.664 172.755L223.377 166.838L228.814 164.797L230.411 157.33L236.753 144.018V138.482H240.899L243.727 134.183H248.724V130.937L247.462 128.455L257.726 116.716L259.046 122.654L274.035 112.619L260.536 108.344L259.046 101.67H250.008L253.535 95.2786H267.763L276.344 87.3233L260.536 76.7247L253.535 73.619L243.726 61.3782L240.898 67.3168L236.752 68.9174L230.41 61.3782L210.335 56.586V68.9186L215.049 73.619L210.335 82.4025L212.625 93.765L205.648 98.2699V90.4816L202.906 80.461L174.99 72.1293L179.439 63.8452H183.632L184.907 56.586L192.01 50.2695L195.43 59.979L205.641 58.6394L198.379 52.7341L201.18 44.4154L208.547 37.3839L207.015 42.9233L208.547 48.8358L226.618 54.7506L239.462 56.5883L231.92 48.8417L239.462 46.1495L215.044 33.3258L199.984 24.5376L208.547 21.172L198.38 17.2021L188.642 21.172L165.856 17.2021L160.046 19.2913L140.166 24.5352L136.829 28.0462L138.617 31.6287H145.161V35.6808L150.909 39.9772L145.161 38.5864L125.642 31.6287L117.575 29.7302L112.784 24.5352L115.236 21.1696H106.247L100.735 26.4814L100.33 20.2293C90.5521 25.2333 81.2316 31.0843 72.4752 37.7152Z" fill="url(#paint10_linear_1_2405)"/>
<path d="M189.633 222.835L204.128 216.214L238.376 225.563L223.76 231.432L221.238 225.563L205.983 222.835L192.812 225.563L189.633 222.835Z" fill="url(#paint11_linear_1_2405)"/>
<path d="M240.729 228.328L257.14 225.44L263.345 230.208L252.875 232.956L250.126 237.824L239.473 235.475L244.903 232.956L240.729 228.328Z" fill="url(#paint12_linear_1_2405)"/>
<defs>
<filter id="filter0_f_1_2405" x="209.508" y="71.8232" width="154.412" height="154.412" filterUnits="userSpaceOnUse" color-interpolation-filters="sRGB">
<feFlood flood-opacity="0" result="BackgroundImageFix"/>
<feBlend mode="normal" in="SourceGraphic" in2="BackgroundImageFix" result="shape"/>
<feGaussianBlur stdDeviation="10" result="effect1_foregroundBlur_1_2405"/>
</filter>
<filter id="filter1_f_1_2405" x="107.588" y="120.069" width="259.33" height="259.33" filterUnits="userSpaceOnUse" color-interpolation-filters="sRGB">
<feFlood flood-opacity="0" result="BackgroundImageFix"/>
<feBlend mode="normal" in="SourceGraphic" in2="BackgroundImageFix" result="shape"/>
<feGaussianBlur stdDeviation="11.5" result="effect1_foregroundBlur_1_2405"/>
</filter>
<filter id="filter2_f_1_2405" x="242.264" y="152.245" width="124.658" height="124.658" filterUnits="userSpaceOnUse" color-interpolation-filters="sRGB">
<feFlood flood-opacity="0" result="BackgroundImageFix"/>
<feBlend mode="normal" in="SourceGraphic" in2="BackgroundImageFix" result="shape"/>
<feGaussianBlur stdDeviation="11.5" result="effect1_foregroundBlur_1_2405"/>
</filter>
<filter id="filter3_f_1_2405" x="174.797" y="212.3" width="97.5073" height="97.5073" filterUnits="userSpaceOnUse" color-interpolation-filters="sRGB">
<feFlood flood-opacity="0" result="BackgroundImageFix"/>
<feBlend mode="normal" in="SourceGraphic" in2="BackgroundImageFix" result="shape"/>
<feGaussianBlur stdDeviation="6.5" result="effect1_foregroundBlur_1_2405"/>
</filter>
<filter id="filter4_f_1_2405" x="204.59" y="234.944" width="78.4387" height="78.4385" filterUnits="userSpaceOnUse" color-interpolation-filters="sRGB">
<feFlood flood-opacity="0" result="BackgroundImageFix"/>
<feBlend mode="normal" in="SourceGraphic" in2="BackgroundImageFix" result="shape"/>
<feGaussianBlur stdDeviation="6.5" result="effect1_foregroundBlur_1_2405"/>
</filter>
<filter id="filter5_f_1_2405" x="41.3147" y="29.9561" width="204.768" height="194.042" filterUnits="userSpaceOnUse" color-interpolation-filters="sRGB">
<feFlood flood-opacity="0" result="BackgroundImageFix"/>
<feBlend mode="normal" in="SourceGraphic" in2="BackgroundImageFix" result="shape"/>
<feGaussianBlur stdDeviation="6.5" result="effect1_foregroundBlur_1_2405"/>
</filter>
<filter id="filter6_f_1_2405" x="43.8928" y="163.632" width="76.8633" height="76.8633" filterUnits="userSpaceOnUse" color-interpolation-filters="sRGB">
<feFlood flood-opacity="0" result="BackgroundImageFix"/>
<feBlend mode="normal" in="SourceGraphic" in2="BackgroundImageFix" result="shape"/>
<feGaussianBlur stdDeviation="7" result="effect1_foregroundBlur_1_2405"/>
</filter>
<filter id="filter7_f_1_2405" x="87.9885" y="205.343" width="76.8633" height="76.8633" filterUnits="userSpaceOnUse" color-interpolation-filters="sRGB">
<feFlood flood-opacity="0" result="BackgroundImageFix"/>
<feBlend mode="normal" in="SourceGraphic" in2="BackgroundImageFix" result="shape"/>
<feGaussianBlur stdDeviation="7" result="effect1_foregroundBlur_1_2405"/>
</filter>
<filter id="filter8_f_1_2405" x="46.2737" y="223.218" width="56.6028" height="56.603" filterUnits="userSpaceOnUse" color-interpolation-filters="sRGB">
<feFlood flood-opacity="0" result="BackgroundImageFix"/>
<feBlend mode="normal" in="SourceGraphic" in2="BackgroundImageFix" result="shape"/>
<feGaussianBlur stdDeviation="7" result="effect1_foregroundBlur_1_2405"/>
</filter>
<radialGradient id="paint0_radial_1_2405" cx="0" cy="0" r="1" gradientUnits="userSpaceOnUse" gradientTransform="translate(61.0299 161.272) rotate(30.4132) scale(312.317 299.564)">
<stop stop-color="#E0B9FF"/>
<stop offset="1" stop-color="#8161FF"/>
</radialGradient>
<linearGradient id="paint1_linear_1_2405" x1="286.714" y1="91.8232" x2="286.714" y2="206.235" gradientUnits="userSpaceOnUse">
<stop stop-color="#BDA0FF"/>
<stop offset="0.9999" stop-color="#452EA3"/>
<stop offset="1"/>
</linearGradient>
<linearGradient id="paint2_linear_1_2405" x1="237.253" y1="143.069" x2="237.253" y2="356.399" gradientUnits="userSpaceOnUse">
<stop stop-color="#BDA0FF"/>
<stop offset="0.9999" stop-color="#452EA3"/>
<stop offset="1"/>
</linearGradient>
<linearGradient id="paint3_linear_1_2405" x1="228.042" y1="71.6336" x2="239.714" y2="257.967" gradientUnits="userSpaceOnUse">
<stop stop-color="#B195FF"/>
<stop offset="1" stop-color="#D795FF"/>
</linearGradient>
<linearGradient id="paint4_linear_1_2405" x1="223.551" y1="225.3" x2="223.551" y2="296.807" gradientUnits="userSpaceOnUse">
<stop stop-color="#BDA0FF"/>
<stop offset="0.9999" stop-color="#452EA3"/>
<stop offset="1"/>
</linearGradient>
<linearGradient id="paint5_linear_1_2405" x1="243.809" y1="247.944" x2="243.809" y2="300.383" gradientUnits="userSpaceOnUse">
<stop stop-color="#BDA0FF"/>
<stop offset="0.9999" stop-color="#452EA3"/>
<stop offset="1"/>
</linearGradient>
<linearGradient id="paint6_linear_1_2405" x1="143.699" y1="42.9561" x2="143.699" y2="210.998" gradientUnits="userSpaceOnUse">
<stop stop-color="white"/>
<stop offset="0.537" stop-color="#D3D3D3"/>
<stop offset="0.576" stop-color="#B5B5B5"/>
<stop offset="1" stop-color="#C1C1C1"/>
</linearGradient>
<linearGradient id="paint7_linear_1_2405" x1="82.3245" y1="177.632" x2="82.3245" y2="226.495" gradientUnits="userSpaceOnUse">
<stop stop-color="#BDA0FF"/>
<stop offset="0.9999" stop-color="#452EA3"/>
<stop offset="1"/>
</linearGradient>
<linearGradient id="paint8_linear_1_2405" x1="126.42" y1="219.343" x2="126.42" y2="268.206" gradientUnits="userSpaceOnUse">
<stop stop-color="#BDA0FF"/>
<stop offset="0.9999" stop-color="#452EA3"/>
<stop offset="1"/>
</linearGradient>
<linearGradient id="paint9_linear_1_2405" x1="74.5751" y1="237.218" x2="74.5751" y2="265.821" gradientUnits="userSpaceOnUse">
<stop stop-color="#BDA0FF"/>
<stop offset="0.9999" stop-color="#452EA3"/>
<stop offset="1"/>
</linearGradient>
<linearGradient id="paint10_linear_1_2405" x1="203.991" y1="17.2021" x2="203.991" y2="362.732" gradientUnits="userSpaceOnUse">
<stop stop-color="#BDA0FF"/>
<stop offset="0.9999" stop-color="#452EA3"/>
<stop offset="1"/>
</linearGradient>
<linearGradient id="paint11_linear_1_2405" x1="211.47" y1="188.898" x2="212.565" y2="257.843" gradientUnits="userSpaceOnUse">
<stop stop-color="#BDA0FF"/>
<stop offset="0.9998" stop-color="#1A12ED"/>
<stop offset="0.9999" stop-color="#1B1786"/>
<stop offset="1"/>
</linearGradient>
<linearGradient id="paint12_linear_1_2405" x1="250.167" y1="203.211" x2="251.648" y2="259.292" gradientUnits="userSpaceOnUse">
<stop stop-color="#BDA0FF"/>
<stop offset="0.9998" stop-color="#1A12ED"/>
<stop offset="0.9999" stop-color="#1B1786"/>
<stop offset="1"/>
</linearGradient>
</defs>
</svg>
