<svg width="79" height="78" viewBox="0 0 79 78" fill="none" xmlns="http://www.w3.org/2000/svg">
<g filter="url(#filter0_bi_1_2445)">
<rect x="2.25024" y="1.72559" width="74.5263" height="74.5263" rx="37.2631" fill="#9B5CD0" fill-opacity="0.29"/>
<rect x="2.25024" y="1.72559" width="74.5263" height="74.5263" rx="37.2631" stroke="#957AE0" stroke-width="3"/>
</g>
<g filter="url(#filter1_bf_1_2445)">
<path d="M26.5049 32.058C26.5049 33.9871 24.9097 35.5819 22.9185 35.5819C20.9274 35.5819 19.3321 33.9871 19.3321 32.058C19.3321 30.1289 20.9274 28.5341 22.9185 28.5341C24.9097 28.5341 26.5049 30.1289 26.5049 32.058ZM59.2096 32.058C59.2096 33.9871 57.6144 35.5819 55.6232 35.5819C53.632 35.5819 52.0368 33.9871 52.0368 32.058C52.0368 30.1289 53.632 28.5341 55.6232 28.5341C57.6144 28.5341 59.2096 30.1289 59.2096 32.058ZM56.3885 47.1058C55.7839 44.3334 54.1882 41.9473 51.9832 40.2983C52.3869 40.1431 52.8263 40.0581 53.2872 40.0581H57.9593C59.9505 40.0581 61.5457 41.6528 61.5457 43.5819V45.8867C61.5457 46.5482 61.0017 47.1058 60.2953 47.1058H56.3885ZM46.3614 30.9056C46.3614 34.7506 43.2039 37.8867 39.2709 37.8867C35.3379 37.8867 32.1804 34.7506 32.1804 30.9056C32.1804 27.0607 35.3379 23.9246 39.2709 23.9246C43.2039 23.9246 46.3614 27.0607 46.3614 30.9056ZM39.2709 43.5152C41.1542 43.5152 42.9203 43.0823 44.5107 42.3629H44.8774C48.9345 42.3629 52.2015 45.607 52.2015 49.5744V51.6487C52.2015 52.944 51.1319 54.0202 49.7831 54.0202H28.7587C27.4099 54.0202 26.3403 52.944 26.3403 51.6487V49.5744C26.3403 45.607 29.6073 42.3629 33.6644 42.3629H34.032C35.6266 43.0816 37.3861 43.5152 39.2709 43.5152ZM25.2546 40.0581C25.7155 40.0581 26.1548 40.1431 26.5585 40.2982C24.353 41.9476 22.7568 44.3338 22.1476 47.1058H18.2464C17.5401 47.1058 16.9961 46.5482 16.9961 45.8867V43.5819C16.9961 41.6528 18.5913 40.0581 20.5825 40.0581H25.2546Z" fill="url(#paint0_linear_1_2445)" stroke="url(#paint1_linear_1_2445)" stroke-width="2.1714"/>
</g>
<path d="M26.9945 32.0619C26.9945 34.2654 25.1757 36.0715 22.9225 36.0715C20.6692 36.0715 18.8504 34.2654 18.8504 32.0619C18.8504 29.8584 20.6692 28.0523 22.9225 28.0523C25.1757 28.0523 26.9945 29.8584 26.9945 32.0619ZM59.6992 32.0619C59.6992 34.2654 57.8804 36.0715 55.6271 36.0715C53.3739 36.0715 51.555 34.2654 51.555 32.0619C51.555 29.8584 53.3739 28.0523 55.6271 28.0523C57.8804 28.0523 59.6992 29.8584 59.6992 32.0619ZM55.9942 47.5954C55.4348 44.5111 53.6037 41.8895 51.0475 40.24C51.691 39.8203 52.4608 39.5763 53.2911 39.5763H57.9632C60.2164 39.5763 62.0353 41.3823 62.0353 43.5858V45.8906C62.0353 46.8265 61.2676 47.5954 60.2992 47.5954H55.9942ZM46.851 30.9095C46.851 35.0289 43.4699 38.3763 39.2748 38.3763C35.0797 38.3763 31.6986 35.0289 31.6986 30.9095C31.6986 26.7902 35.0797 23.4428 39.2748 23.4428C43.4699 23.4428 46.851 26.7902 46.851 30.9095ZM39.2748 43.0335C41.1196 43.0335 42.8505 42.6008 44.4089 41.8811H44.8813C49.2005 41.8811 52.6911 45.3365 52.6911 49.5783V51.6526C52.6911 53.2223 51.3978 54.5098 49.787 54.5098H28.7626C27.1518 54.5098 25.8585 53.2223 25.8585 51.6526V49.5783C25.8585 45.3365 29.3491 41.8811 33.6683 41.8811H34.1413C35.7052 42.6004 37.4291 43.0335 39.2748 43.0335ZM25.2585 39.5763C26.0888 39.5763 26.8585 39.8203 27.5021 40.24C24.9455 41.8897 23.1141 44.5114 22.5491 47.5954H18.2504C17.282 47.5954 16.5143 46.8265 16.5143 45.8906V43.5858C16.5143 41.3823 18.3332 39.5763 20.5864 39.5763H25.2585Z" stroke="url(#paint2_linear_1_2445)" stroke-width="1.2"/>
<defs>
<filter id="filter0_bi_1_2445" x="-74.2498" y="-74.7744" width="227.526" height="227.526" filterUnits="userSpaceOnUse" color-interpolation-filters="sRGB">
<feFlood flood-opacity="0" result="BackgroundImageFix"/>
<feGaussianBlur in="BackgroundImageFix" stdDeviation="37.5"/>
<feComposite in2="SourceAlpha" operator="in" result="effect1_backgroundBlur_1_2445"/>
<feBlend mode="normal" in="SourceGraphic" in2="effect1_backgroundBlur_1_2445" result="shape"/>
<feColorMatrix in="SourceAlpha" type="matrix" values="0 0 0 0 0 0 0 0 0 0 0 0 0 0 0 0 0 0 127 0" result="hardAlpha"/>
<feOffset dx="3" dy="3"/>
<feGaussianBlur stdDeviation="1.5"/>
<feComposite in2="hardAlpha" operator="arithmetic" k2="-1" k3="1"/>
<feColorMatrix type="matrix" values="0 0 0 0 0 0 0 0 0 0 0 0 0 0 0 0 0 0 0.15 0"/>
<feBlend mode="normal" in2="shape" result="effect2_innerShadow_1_2445"/>
</filter>
<filter id="filter1_bf_1_2445" x="-20.0896" y="-13.1611" width="118.721" height="104.267" filterUnits="userSpaceOnUse" color-interpolation-filters="sRGB">
<feFlood flood-opacity="0" result="BackgroundImageFix"/>
<feGaussianBlur in="BackgroundImageFix" stdDeviation="18"/>
<feComposite in2="SourceAlpha" operator="in" result="effect1_backgroundBlur_1_2445"/>
<feBlend mode="normal" in="SourceGraphic" in2="effect1_backgroundBlur_1_2445" result="shape"/>
<feGaussianBlur stdDeviation="5" result="effect2_foregroundBlur_1_2445"/>
</filter>
<linearGradient id="paint0_linear_1_2445" x1="-6.19863" y1="-19.6646" x2="-2.88487" y2="56.9297" gradientUnits="userSpaceOnUse">
<stop stop-color="#5A42B2"/>
<stop offset="1" stop-color="#DAB3FF"/>
</linearGradient>
<linearGradient id="paint1_linear_1_2445" x1="39.2709" y1="22.8389" x2="39.2709" y2="55.1059" gradientUnits="userSpaceOnUse">
<stop stop-color="#BC6DFF"/>
<stop offset="1" stop-color="#714199"/>
</linearGradient>
<linearGradient id="paint2_linear_1_2445" x1="-6.19472" y1="-19.6607" x2="-2.88097" y2="56.9336" gradientUnits="userSpaceOnUse">
<stop stop-color="#E9CDFF"/>
<stop offset="1" stop-color="#E9C6FF"/>
</linearGradient>
</defs>
</svg>
