<svg width="330" height="236" viewBox="0 0 330 236" fill="none" xmlns="http://www.w3.org/2000/svg">
<g filter="url(#filter0_bd_1_1945)">
<rect x="38.5" y="29.9961" width="253" height="160" rx="6" fill="#E0B9FF" fill-opacity="0.2"/>
</g>
<g filter="url(#filter1_b_1_1945)">
<rect x="38.5" y="55.8594" width="253" height="122.707" rx="6" fill="#F5E9FF" fill-opacity="0.5"/>
</g>
<g filter="url(#filter2_d_1_1945)">
<rect x="187.89" y="67.8909" width="84.3333" height="55.3383" rx="6" fill="white"/>
</g>
<path d="M232.372 79.1199C228.577 78.3144 224.624 78.7293 221.079 80.3051C217.535 81.8809 214.581 84.5367 212.641 87.8919C210.701 91.2471 209.875 95.1295 210.28 98.9825C210.686 102.836 212.302 106.461 214.899 109.341C217.495 112.22 220.937 114.204 224.732 115.01C228.527 115.815 232.48 115.4 236.025 113.825C239.569 112.249 242.523 109.593 244.463 106.238C246.403 102.883 247.23 99.0002 246.824 95.1472L228.552 97.0649L232.372 79.1199Z" fill="url(#paint0_linear_1_1945)"/>
<path d="M235.344 75.606C239.373 76.5304 243.006 78.7049 245.722 81.8177C248.437 84.9305 250.096 88.8219 250.461 92.9341L230.96 94.6585L235.344 75.606Z" fill="url(#paint1_linear_1_1945)"/>
<g filter="url(#filter3_d_1_1945)">
<rect x="187.891" y="135.859" width="84.3333" height="27.6692" rx="6" fill="white"/>
</g>
<rect x="193.914" y="143.68" width="72.2857" height="3.60902" rx="1.80451" fill="url(#paint2_linear_1_1945)"/>
<rect x="193.914" y="152.101" width="72.2857" height="3.60902" rx="1.80451" fill="url(#paint3_linear_1_1945)"/>
<rect x="78.2578" y="150.898" width="97.5857" height="3.60902" rx="1.80451" fill="url(#paint4_linear_1_1945)"/>
<rect x="57.7754" y="150.898" width="14.4571" height="3.60902" rx="1.80451" fill="url(#paint5_linear_1_1945)"/>
<rect x="78.2578" y="159.32" width="97.5857" height="3.60902" rx="1.80451" fill="url(#paint6_linear_1_1945)"/>
<rect x="57.7754" y="159.32" width="14.4571" height="3.60902" rx="1.80451" fill="url(#paint7_linear_1_1945)"/>
<g filter="url(#filter4_d_1_1945)">
<rect x="57.7754" y="67.8906" width="118.067" height="67.9699" rx="6" fill="white"/>
</g>
<line opacity="0.3" x1="67.3105" y1="125.738" x2="165.101" y2="125.738" stroke="url(#paint8_linear_1_1945)" stroke-linecap="round"/>
<line opacity="0.2" x1="67.3105" y1="113.559" x2="165.101" y2="113.559" stroke="url(#paint9_linear_1_1945)" stroke-linecap="round"/>
<line opacity="0.2" x1="67.3105" y1="101.375" x2="165.101" y2="101.375" stroke="url(#paint10_linear_1_1945)" stroke-linecap="round"/>
<line opacity="0.2" x1="67.3105" y1="89.1953" x2="165.101" y2="89.1953" stroke="url(#paint11_linear_1_1945)" stroke-linecap="round"/>
<line opacity="0.2" x1="67.3105" y1="77.0156" x2="165.101" y2="77.0156" stroke="url(#paint12_linear_1_1945)" stroke-linecap="round"/>
<path opacity="0.4" d="M80.4982 115.765C76.64 115.765 70.4614 116.203 67.4141 126.237H165.602V77.5156C161.902 77.5156 155.118 89.2829 151.189 89.2829C147.569 89.2829 144.677 94.2948 143.193 94.2948C141.851 94.2948 139.349 90.1545 138.342 90.1545C137.336 90.1545 137.573 101.194 135.561 101.194C134.219 101.194 132.639 94.2948 130.458 94.2948C128.278 94.2948 126.672 102.583 124.839 102.583C119.974 102.583 120.394 112.122 117.206 112.122C114.522 112.122 116.228 97.0954 113.208 97.0954C109.35 97.0954 110.161 87.1037 107.645 87.1037C104.458 87.1037 107.869 102.583 102.668 102.583C98.4749 102.583 97.4737 107.995 95.2178 108.024C92.9619 108.052 89.8639 102.583 87.851 102.583C84.8316 102.583 83.8531 115.765 80.4982 115.765Z" fill="url(#paint13_linear_1_1945)"/>
<path d="M68.0156 126.237C71.063 116.203 77.2416 115.765 81.0997 115.765C84.4546 115.765 85.4331 102.583 88.4526 102.583C90.4655 102.583 93.5634 108.052 95.8194 108.024C98.0753 107.995 99.0764 102.583 103.27 102.583C108.471 102.583 105.059 87.1037 108.246 87.1037C110.763 87.1037 109.952 97.0954 113.81 97.0954C116.829 97.0954 115.124 112.122 117.808 112.122C120.995 112.122 120.576 102.583 125.44 102.583C127.273 102.583 128.879 94.2948 131.06 94.2948C133.241 94.2948 134.82 101.194 136.162 101.194C138.175 101.194 137.937 90.1545 138.944 90.1545C139.95 90.1545 142.453 94.2948 143.794 94.2948C145.278 94.2948 148.171 89.2829 151.79 89.2829C155.719 89.2829 161.901 77.5156 165.601 77.5156" stroke="#6241D4" stroke-width="2" stroke-linecap="round" stroke-linejoin="round"/>
<ellipse cx="98.7376" cy="105.785" rx="2.40952" ry="2.40601" fill="#6241D4"/>
<path d="M99.3779 100.44C99.0072 100.749 98.4692 100.749 98.0986 100.44L95.7607 98.495C94.3222 97.298 95.1686 94.9576 97.0399 94.9576L100.437 94.9576C102.308 94.9576 103.154 97.298 101.716 98.495L99.3779 100.44Z" fill="url(#paint14_linear_1_1945)"/>
<rect x="77.6543" y="78.1172" width="42.1667" height="20.4511" rx="4" fill="url(#paint15_linear_1_1945)"/>
<rect opacity="0.4" x="82.4727" y="92.5547" width="16.8667" height="1.80451" rx="0.902256" fill="white"/>
<path d="M85.5763 83.082C85.4189 83.6434 85.1434 84.3059 84.7499 85.0694C84.3563 85.8273 83.9993 86.3943 83.6788 86.7705H85.6185V85.0947C85.8097 84.7185 85.9615 84.334 86.0739 83.941H86.445V86.7705H87.1787V87.5199H86.445V88.9431H85.6185V87.5199H82.8945V86.762C83.6592 85.6168 84.2579 84.3901 84.6908 83.082H85.5763Z" fill="white"/>
<path d="M90.301 83.082C90.6552 83.082 90.9785 83.1662 91.2708 83.3347C91.5688 83.5031 91.8049 83.7361 91.9792 84.0336C92.1535 84.3312 92.2406 84.6652 92.2406 85.0357V87.082C92.2406 87.4469 92.1563 87.7782 91.9876 88.0757C91.819 88.3676 91.5857 88.6006 91.2877 88.7747C90.9953 88.9431 90.6664 89.0273 90.301 89.0273H90.1913C89.8203 89.0273 89.4858 88.9431 89.1878 88.7747C88.8954 88.6006 88.6677 88.3648 88.5047 88.0673C88.3416 87.7698 88.2601 87.4413 88.2601 87.082V85.0357C88.2601 84.6596 88.3444 84.3227 88.5131 84.0252C88.6874 83.7276 88.9207 83.4975 89.2131 83.3347C89.5054 83.1662 89.8315 83.082 90.1913 83.082H90.301ZM90.2504 83.8315C89.9243 83.8315 89.6488 83.941 89.4239 84.1599C89.199 84.3733 89.0866 84.6427 89.0866 84.9683V87.141C89.0866 87.4666 89.199 87.7389 89.4239 87.9578C89.6488 88.1712 89.9243 88.2778 90.2504 88.2778C90.5877 88.2778 90.866 88.1683 91.0853 87.9494C91.3045 87.7305 91.4142 87.461 91.4142 87.141V84.9683C91.4142 84.6483 91.3045 84.3789 91.0853 84.1599C90.866 83.941 90.5877 83.8315 90.2504 83.8315Z" fill="white"/>
<path d="M97.8508 83.1662L94.3425 88.9431H93.7522L97.2773 83.1662H97.8508ZM94.1823 83.1747C94.4803 83.1747 94.7248 83.2729 94.916 83.4694C95.1071 83.6603 95.2027 83.9017 95.2027 84.1936V85.0947C95.2027 85.3866 95.1043 85.6308 94.9076 85.8273C94.7164 86.0182 94.4746 86.1136 94.1823 86.1136H94.1233C93.8309 86.1136 93.5863 86.0182 93.3896 85.8273C93.1984 85.6308 93.1028 85.3866 93.1028 85.0947V84.1936C93.1028 83.9017 93.1984 83.6603 93.3896 83.4694C93.5807 83.2729 93.8253 83.1747 94.1233 83.1747H94.1823ZM94.157 83.6378C93.9996 83.6378 93.8731 83.6855 93.7775 83.781C93.6875 83.8708 93.6426 83.9887 93.6426 84.1347V85.1536C93.6426 85.2996 93.6875 85.4203 93.7775 85.5157C93.8731 85.6055 93.9996 85.6505 94.157 85.6505C94.3144 85.6505 94.4381 85.6055 94.5281 85.5157C94.618 85.4203 94.663 85.2996 94.663 85.1536V84.1347C94.663 83.9887 94.618 83.8708 94.5281 83.781C94.4381 83.6855 94.3144 83.6378 94.157 83.6378ZM97.4713 86.0126C97.7636 86.0126 98.0054 86.1108 98.1966 86.3073C98.3933 86.4982 98.4917 86.7396 98.4917 87.0315V87.9326C98.4917 88.2245 98.3961 88.4687 98.205 88.6652C98.0138 88.8561 97.7693 88.9515 97.4713 88.9515H97.4123C97.1143 88.9515 96.8697 88.8561 96.6786 88.6652C96.4874 88.4687 96.3918 88.2245 96.3918 87.9326V87.0315C96.3918 86.7396 96.4874 86.4982 96.6786 86.3073C96.8753 86.1108 97.1199 86.0126 97.4123 86.0126H97.4713ZM97.446 86.4757C97.2886 86.4757 97.1621 86.5234 97.0665 86.6189C96.9765 86.7087 96.9316 86.8266 96.9316 86.9726V87.9915C96.9316 88.1375 96.9765 88.2582 97.0665 88.3536C97.1621 88.4434 97.2886 88.4883 97.446 88.4883C97.6034 88.4883 97.7271 88.4434 97.8171 88.3536C97.907 88.2582 97.952 88.1375 97.952 87.9915V86.9726C97.952 86.8266 97.907 86.7087 97.8171 86.6189C97.7271 86.5234 97.6034 86.4757 97.446 86.4757Z" fill="white"/>
<ellipse cx="110.785" cy="87.7418" rx="4.21667" ry="4.21053" fill="white"/>
<path d="M111.094 86.682C110.935 86.5123 110.635 86.5123 110.476 86.682L108.898 88.3648C108.688 88.589 108.873 88.9231 109.207 88.9231L112.363 88.9231C112.698 88.9231 112.883 88.589 112.673 88.3648L111.094 86.682Z" fill="url(#paint16_linear_1_1945)"/>
<ellipse cx="53.5588" cy="43.2302" rx="3.0119" ry="3.00752" fill="#D280FF"/>
<ellipse cx="66.8127" cy="43.2302" rx="3.0119" ry="3.00752" fill="url(#paint17_linear_1_1945)"/>
<ellipse cx="80.0646" cy="43.2302" rx="3.0119" ry="3.00752" fill="url(#paint18_linear_1_1945)"/>
<defs>
<filter id="filter0_bd_1_1945" x="0.5" y="-0.00390625" width="329" height="236" filterUnits="userSpaceOnUse" color-interpolation-filters="sRGB">
<feFlood flood-opacity="0" result="BackgroundImageFix"/>
<feGaussianBlur in="BackgroundImageFix" stdDeviation="5"/>
<feComposite in2="SourceAlpha" operator="in" result="effect1_backgroundBlur_1_1945"/>
<feColorMatrix in="SourceAlpha" type="matrix" values="0 0 0 0 0 0 0 0 0 0 0 0 0 0 0 0 0 0 127 0" result="hardAlpha"/>
<feMorphology radius="2" operator="erode" in="SourceAlpha" result="effect2_dropShadow_1_1945"/>
<feOffset dy="8"/>
<feGaussianBlur stdDeviation="20"/>
<feColorMatrix type="matrix" values="0 0 0 0 0.0235294 0 0 0 0 0.0470588 0 0 0 0 0.231373 0 0 0 0.08 0"/>
<feBlend mode="normal" in2="effect1_backgroundBlur_1_1945" result="effect2_dropShadow_1_1945"/>
<feBlend mode="normal" in="SourceGraphic" in2="effect2_dropShadow_1_1945" result="shape"/>
</filter>
<filter id="filter1_b_1_1945" x="34.5" y="51.8594" width="261" height="130.707" filterUnits="userSpaceOnUse" color-interpolation-filters="sRGB">
<feFlood flood-opacity="0" result="BackgroundImageFix"/>
<feGaussianBlur in="BackgroundImageFix" stdDeviation="2"/>
<feComposite in2="SourceAlpha" operator="in" result="effect1_backgroundBlur_1_1945"/>
<feBlend mode="normal" in="SourceGraphic" in2="effect1_backgroundBlur_1_1945" result="shape"/>
</filter>
<filter id="filter2_d_1_1945" x="167.89" y="53.8909" width="124.333" height="95.3384" filterUnits="userSpaceOnUse" color-interpolation-filters="sRGB">
<feFlood flood-opacity="0" result="BackgroundImageFix"/>
<feColorMatrix in="SourceAlpha" type="matrix" values="0 0 0 0 0 0 0 0 0 0 0 0 0 0 0 0 0 0 127 0" result="hardAlpha"/>
<feOffset dy="6"/>
<feGaussianBlur stdDeviation="10"/>
<feColorMatrix type="matrix" values="0 0 0 0 0.11 0 0 0 0 0.14137 0 0 0 0 0.4125 0 0 0 0.05 0"/>
<feBlend mode="normal" in2="BackgroundImageFix" result="effect1_dropShadow_1_1945"/>
<feBlend mode="normal" in="SourceGraphic" in2="effect1_dropShadow_1_1945" result="shape"/>
</filter>
<filter id="filter3_d_1_1945" x="167.891" y="121.859" width="124.333" height="67.6692" filterUnits="userSpaceOnUse" color-interpolation-filters="sRGB">
<feFlood flood-opacity="0" result="BackgroundImageFix"/>
<feColorMatrix in="SourceAlpha" type="matrix" values="0 0 0 0 0 0 0 0 0 0 0 0 0 0 0 0 0 0 127 0" result="hardAlpha"/>
<feOffset dy="6"/>
<feGaussianBlur stdDeviation="10"/>
<feColorMatrix type="matrix" values="0 0 0 0 0.11 0 0 0 0 0.14137 0 0 0 0 0.4125 0 0 0 0.05 0"/>
<feBlend mode="normal" in2="BackgroundImageFix" result="effect1_dropShadow_1_1945"/>
<feBlend mode="normal" in="SourceGraphic" in2="effect1_dropShadow_1_1945" result="shape"/>
</filter>
<filter id="filter4_d_1_1945" x="37.7754" y="53.8906" width="158.067" height="107.97" filterUnits="userSpaceOnUse" color-interpolation-filters="sRGB">
<feFlood flood-opacity="0" result="BackgroundImageFix"/>
<feColorMatrix in="SourceAlpha" type="matrix" values="0 0 0 0 0 0 0 0 0 0 0 0 0 0 0 0 0 0 127 0" result="hardAlpha"/>
<feOffset dy="6"/>
<feGaussianBlur stdDeviation="10"/>
<feColorMatrix type="matrix" values="0 0 0 0 0.11 0 0 0 0 0.14137 0 0 0 0 0.4125 0 0 0 0.05 0"/>
<feBlend mode="normal" in2="BackgroundImageFix" result="effect1_dropShadow_1_1945"/>
<feBlend mode="normal" in="SourceGraphic" in2="effect1_dropShadow_1_1945" result="shape"/>
</filter>
<linearGradient id="paint0_linear_1_1945" x1="228.552" y1="78.719" x2="228.552" y2="115.411" gradientUnits="userSpaceOnUse">
<stop stop-color="#BC6DFF"/>
<stop offset="1" stop-color="#714199"/>
</linearGradient>
<linearGradient id="paint1_linear_1_1945" x1="212.347" y1="76.323" x2="270.102" y2="92.5885" gradientUnits="userSpaceOnUse">
<stop offset="0.00724638" stop-color="white"/>
<stop offset="1" stop-color="#E0B9FF"/>
</linearGradient>
<linearGradient id="paint2_linear_1_1945" x1="159.707" y1="138.926" x2="159.734" y2="147.509" gradientUnits="userSpaceOnUse">
<stop stop-color="#B195FF"/>
<stop offset="1" stop-color="#E9C6FF"/>
</linearGradient>
<linearGradient id="paint3_linear_1_1945" x1="159.708" y1="147.347" x2="159.735" y2="155.93" gradientUnits="userSpaceOnUse">
<stop stop-color="#B195FF"/>
<stop offset="1" stop-color="#E9C6FF"/>
</linearGradient>
<linearGradient id="paint4_linear_1_1945" x1="32.0789" y1="146.144" x2="32.0987" y2="154.727" gradientUnits="userSpaceOnUse">
<stop stop-color="#B195FF"/>
<stop offset="1" stop-color="#E9C6FF"/>
</linearGradient>
<linearGradient id="paint5_linear_1_1945" x1="50.9341" y1="146.144" x2="51.0683" y2="154.725" gradientUnits="userSpaceOnUse">
<stop stop-color="#B195FF"/>
<stop offset="1" stop-color="#E9C6FF"/>
</linearGradient>
<linearGradient id="paint6_linear_1_1945" x1="32.0789" y1="154.566" x2="32.0987" y2="163.149" gradientUnits="userSpaceOnUse">
<stop stop-color="#B195FF"/>
<stop offset="1" stop-color="#E9C6FF"/>
</linearGradient>
<linearGradient id="paint7_linear_1_1945" x1="50.9341" y1="154.566" x2="51.0683" y2="163.147" gradientUnits="userSpaceOnUse">
<stop stop-color="#B195FF"/>
<stop offset="1" stop-color="#E9C6FF"/>
</linearGradient>
<linearGradient id="paint8_linear_1_1945" x1="20.0615" y1="124.921" x2="20.063" y2="127.299" gradientUnits="userSpaceOnUse">
<stop stop-color="#B195FF"/>
<stop offset="1" stop-color="#E9C6FF"/>
</linearGradient>
<linearGradient id="paint9_linear_1_1945" x1="20.0615" y1="112.741" x2="20.063" y2="115.12" gradientUnits="userSpaceOnUse">
<stop stop-color="#B195FF"/>
<stop offset="1" stop-color="#E9C6FF"/>
</linearGradient>
<linearGradient id="paint10_linear_1_1945" x1="20.0615" y1="100.558" x2="20.063" y2="102.936" gradientUnits="userSpaceOnUse">
<stop stop-color="#B195FF"/>
<stop offset="1" stop-color="#E9C6FF"/>
</linearGradient>
<linearGradient id="paint11_linear_1_1945" x1="20.0615" y1="88.3781" x2="20.063" y2="90.7563" gradientUnits="userSpaceOnUse">
<stop stop-color="#B195FF"/>
<stop offset="1" stop-color="#E9C6FF"/>
</linearGradient>
<linearGradient id="paint12_linear_1_1945" x1="20.0615" y1="76.1984" x2="20.063" y2="78.5766" gradientUnits="userSpaceOnUse">
<stop stop-color="#B195FF"/>
<stop offset="1" stop-color="#E9C6FF"/>
</linearGradient>
<linearGradient id="paint13_linear_1_1945" x1="116.508" y1="63.1311" x2="116.508" y2="126.237" gradientUnits="userSpaceOnUse">
<stop stop-color="#9374FF"/>
<stop offset="1" stop-color="#9374FF" stop-opacity="0"/>
</linearGradient>
<linearGradient id="paint14_linear_1_1945" x1="98.7382" y1="100.973" x2="98.7382" y2="94.9576" gradientUnits="userSpaceOnUse">
<stop stop-color="#BC6DFF"/>
<stop offset="1" stop-color="#714199"/>
</linearGradient>
<linearGradient id="paint15_linear_1_1945" x1="98.7376" y1="78.1172" x2="98.7376" y2="98.5683" gradientUnits="userSpaceOnUse">
<stop stop-color="#BC6DFF"/>
<stop offset="1" stop-color="#714199"/>
</linearGradient>
<linearGradient id="paint16_linear_1_1945" x1="106.938" y1="83.4349" x2="107.149" y2="89.0596" gradientUnits="userSpaceOnUse">
<stop stop-color="#B195FF"/>
<stop offset="1" stop-color="#D795FF"/>
</linearGradient>
<linearGradient id="paint17_linear_1_1945" x1="63.9491" y1="40.4093" x2="72.8345" y2="42.9117" gradientUnits="userSpaceOnUse">
<stop offset="0.00724638" stop-color="white"/>
<stop offset="0.00734638" stop-color="#E0B9FF"/>
</linearGradient>
<linearGradient id="paint18_linear_1_1945" x1="74.2022" y1="32.2994" x2="75.0935" y2="46.5487" gradientUnits="userSpaceOnUse">
<stop stop-color="#B195FF"/>
<stop offset="1" stop-color="#D795FF"/>
</linearGradient>
</defs>
</svg>
