<svg width="421" height="216" viewBox="0 0 421 216" fill="none" xmlns="http://www.w3.org/2000/svg">
    <rect x="0.772461" y="0.978027" width="419.417" height="214.078" rx="20" fill="#9945FF"/>
    <path d="M392.995 81.6314C400.778 86.3758 410.293 130.618 416.46 166.033C418.556 178.071 409.209 188.938 396.991 188.961L9.64365 189.707C7.79843 189.711 6.39661 187.877 7.15244 186.194C7.31345 185.835 7.40286 185.525 7.46594 185.137C7.91479 182.376 9.50098 179.326 13.9641 171.944C14.8323 170.508 15.8677 169.164 17.1478 168.079C26.5462 160.114 34.8139 161.805 37.9261 163.8C38.8621 164.452 41.2991 166.119 44.5604 168.276C46.0752 169.278 47.7326 170.24 49.5462 170.144C54.0857 169.904 57.1114 165.291 58.1716 162.604C59.201 160.477 62.2893 152.796 66.4071 139.081C69.209 127.416 73.5334 128.192 76.1711 130.81C77.0817 131.714 77.8396 132.764 78.7474 133.671C79.2696 134.193 79.8959 134.816 80.604 135.515C82.985 137.867 86.4546 139.957 88.9091 137.682C92.0352 134.785 94.0903 128.529 94.888 124.728C97.29 115.559 102.849 95.2258 105.869 87.2521C109.447 80.3229 114.148 82.3257 116.82 84.8879C117.578 85.6152 118.133 86.5143 118.643 87.4328C122.203 93.8403 128.623 105.328 130.918 109.18C133.389 113.326 136.294 113.3 137.438 112.768C138.288 112.329 140.309 111.038 142.533 108.984C143.509 108.084 144.473 107.087 145.753 106.734C147.309 106.305 148.796 106.614 149.838 107.055C150.523 107.345 151.083 107.852 151.605 108.381C152.153 108.936 152.846 109.636 153.585 110.381C155.077 111.883 157.454 113.371 159.019 111.945C159.463 111.54 160.007 111.002 160.342 110.502C162.353 107.495 165.501 96.486 166.948 90.8403C167.414 89.1089 168.714 85.0162 170.663 80.4561C171.568 78.3388 172.882 75.6397 175.169 75.9101C180.785 76.5742 184.306 95.2136 185.478 105.99C186.851 117.419 189.664 141.394 189.939 145.859C190.254 150.979 191.723 156.098 193.024 161.218C193.258 162.139 193.833 163.773 194.46 164.488C196.641 166.974 198.749 162.114 200.46 159.283C202.775 155.449 205.514 152.575 207.444 150.919C208.324 150.165 209.34 149.604 210.383 149.099C214.803 146.957 222.127 143.098 225.283 140.277C227.913 137.926 230.705 137.886 232.587 138.399C233.718 138.708 234.627 139.505 235.634 140.106C237.08 140.968 239.267 141.872 241.754 141.872C246.695 141.872 250.447 133.632 251.705 129.513C253.649 124.994 257.881 115.001 259.254 111.173C260.764 106.962 262.54 103.369 265.752 99.0338C266.657 97.8124 267.704 96.6494 269.068 95.9792C273.4 93.8512 276.57 96.931 279.083 100.081C280.295 101.601 281.604 103.306 283.528 103.575C286.121 103.938 288.047 101.686 289.749 98.6116C290.255 97.6959 290.799 96.8004 291.261 95.8613C294.061 90.1674 298.213 74.1101 300.088 66.1218C301.003 63.1981 303.863 54.6397 307.98 43.7955C313.745 33.2702 320.219 44.1942 322.736 50.9718C328.226 65.9889 339.687 96.98 341.609 100.807C344.011 105.592 345.383 105.99 349.501 105.99C353.226 106.261 359.19 99.4751 362.869 94.4893C364.052 92.8873 365.32 91.2037 367.215 90.5917C367.319 90.558 367.424 90.5272 367.529 90.4998C369.249 90.0518 370.55 91.651 371.89 92.8202C374.86 95.4138 377.119 94.0584 377.982 92.8337C380.274 90.2728 384.741 85.5958 387.925 83.1483C389.419 82.0006 391.387 80.6512 392.995 81.6314Z" fill="url(#paint0_linear_0_1)"/>
    <defs>
    <linearGradient id="paint0_linear_0_1" x1="213.101" y1="39.4229" x2="213.101" y2="189.714" gradientUnits="userSpaceOnUse">
    <stop stop-color="#EB00FF"/>
    <stop offset="1" stop-color="#D3FFFC" stop-opacity="0"/>
    </linearGradient>
    </defs>
</svg>