<svg width="20" height="12" viewBox="0 0 20 12" fill="none" xmlns="http://www.w3.org/2000/svg">
<path d="M19.3679 2.48467L10.5025 11.3765C10.3969 11.482 10.2826 11.557 10.1594 11.6013C10.0363 11.6456 9.90439 11.6674 9.76367 11.6667C9.62295 11.6667 9.49102 11.6446 9.36789 11.6002C9.24476 11.5559 9.13042 11.4813 9.02488 11.3765L0.133065 2.48467C-0.113197 2.23841 -0.236328 1.93058 -0.236328 1.56119C-0.236328 1.1918 -0.104402 0.875175 0.15945 0.611322C0.423302 0.34747 0.73113 0.215544 1.08293 0.215544C1.43474 0.215544 1.74256 0.34747 2.00642 0.611322L9.76367 8.36858L17.5209 0.611322C17.7672 0.365061 18.0708 0.241929 18.4317 0.241929C18.7927 0.241929 19.1047 0.373855 19.3679 0.637707C19.6317 0.901559 19.7637 1.20939 19.7637 1.56119C19.7637 1.91299 19.6317 2.22082 19.3679 2.48467Z" fill="white"/>
</svg>
